<svg xmlns="http://www.w3.org/2000/svg" width="341" height="90" fill="none"><path fill="#E8E3D1" fill-rule="evenodd" d="M175.36 20.164c-1.139-.99-2.599-1.485-4.381-1.485s-3.242.495-4.381 1.485c-1.138.99-1.707 2.3017-1.707 3.9352 0 1.6335.569 2.9453 1.707 3.9353 1.139.99 2.599 1.485 4.381 1.485s3.242-.495 4.381-1.485c1.138-.99 1.708-2.3018 1.708-3.9353 0-1.6335-.57-2.9452-1.708-3.9352Zm.817 48.9307V36.796c-1.386.3465-2.921.6187-4.604.8167-1.633.1485-3.366.2228-5.197.2228-1.485 0-3.02-.0743-4.604-.2228v1.5593c1.931 0 3.242.5445 3.935 1.6335.743 1.0395 1.114 2.6977 1.114 4.9747v23.3145c0 2.079-.396 3.4898-1.188 4.2323-.742.7425-2.029 1.1137-3.861 1.1137V76c.941-.0495 2.351-.099 4.232-.1485 1.881-.099 3.738-.1485 5.569-.1485 1.881 0 3.737.0495 5.569.1485 1.831.0495 3.193.099 4.084.1485v-1.5593c-1.832 0-3.144-.3712-3.936-1.1137-.742-.7425-1.113-2.1533-1.113-4.2323Zm66.483-31.4078V25.4357c-1.386.6435-2.847 1.1137-4.381 1.4107-1.535.297-3.193.4703-4.975.5198v10.3207h-6.534v1.485h6.534v25.0223c0 2.6235.173 4.7272.52 6.3112.396 1.584 1.138 2.9453 2.227 4.0838.842.792 1.832 1.386 2.97 1.782 1.188.4455 2.624.6682 4.307.6682 2.821 0 4.999-.792 6.534-2.376 1.584-1.6335 2.747-3.663 3.49-6.0885l-1.337-.594c-.742 2.0295-1.584 3.4898-2.524 4.3808-.941.8415-1.98 1.2622-3.119 1.2622-1.188 0-2.104-.3712-2.747-1.1137-.644-.7425-.965-2.0048-.965-3.7868V39.1719h9.504v-1.485h-9.504Zm31.598-.2227c-1.485-.594-3.267-.891-5.347-.891-2.128 0-4.133.396-6.014 1.188-1.831.7425-3.316 1.8563-4.455 3.3413-1.138 1.4355-1.708 3.267-1.708 5.4945 0 2.0295.446 3.7867 1.337 5.2717.941 1.485 2.129 2.8215 3.564 4.0095 1.485 1.188 3.069 2.4008 4.752 3.6383 2.228 1.6335 4.084 3.168 5.569 4.6035 1.485 1.4355 2.227 3.2422 2.227 5.4202 0 1.4355-.297 2.574-.891 3.4155-.544.8415-1.262 1.4603-2.153 1.8563-.841.396-1.733.594-2.673.594-2.178 0-3.96-.5693-5.346-1.7078-1.386-1.188-2.45-2.7967-3.193-4.8262-.693-2.079-1.212-4.4798-1.559-7.2023h-1.634c0 3.762-.024 6.7815-.074 9.0585-.049 2.277-.124 4.2075-.222 5.7915h1.633c.198-1.0395.47-1.782.817-2.2275.396-.4455.841-.5445 1.336-.297.545.198 1.065.4455 1.56.7425.544.297 1.138.6188 1.782.9653.841.396 1.806.7177 2.895.9652 1.089.2475 2.302.3713 3.639.3713 2.475 0 4.727-.4208 6.756-1.2623 2.079-.891 3.738-2.1285 4.975-3.7125 1.287-1.6335 1.931-3.5887 1.931-5.8657 0-1.98-.421-3.6878-1.263-5.1233-.841-1.485-1.955-2.8215-3.341-4.0095-1.386-1.2375-2.97-2.4502-4.752-3.6382-1.534-1.1385-3.019-2.178-4.455-3.1185-1.386-.99-2.525-2.0295-3.416-3.1185-.89-1.1385-1.336-2.4503-1.336-3.9353 0-1.6335.495-2.8957 1.485-3.7867 1.04-.891 2.326-1.3365 3.861-1.3365 2.178 0 3.935.594 5.272 1.782 1.336 1.1385 2.351 2.574 3.044 4.3065.693 1.7325 1.163 3.5145 1.411 5.346h1.633c0-3.267.025-5.8658.075-7.7963.049-1.98.123-3.6877.222-5.1232h-1.633c-.347 2.8215-1.361 3.6135-3.044 2.376-.693-.4455-1.783-.9653-3.267-1.5593Zm-75.686-.594v7.4215c.86-2.0719 2.098-3.7538 3.712-5.0455 2.228-1.782 4.876-2.673 7.945-2.673 2.574 0 4.876.7178 6.905 2.1533 2.03 1.386 3.614 3.4402 4.752 6.1627 1.188 2.7225 1.782 6.138 1.782 10.2465 0 3.267-.371 6.2618-1.113 8.9843-.743 2.673-1.857 4.9747-3.342 6.9052-1.435 1.9305-3.217 3.4155-5.346 4.455-2.128 1.0395-4.554 1.5593-7.276 1.5593-2.079 0-3.935-.396-5.569-1.188-.976-.4731-1.792-1.0433-2.45-1.7106v8.0961c0 2.2275.594 3.7125 1.782 4.455 1.237.792 2.92 1.188 5.049 1.188v1.5593c-1.188-.0496-2.871-.1238-5.049-.2228-2.129-.0495-4.406-.0743-6.831-.0743-1.683 0-3.366.0248-5.049.0743-1.683.099-2.97.1732-3.861.2228V87.88c1.683 0 2.871-.3465 3.564-1.0395.693-.693 1.039-1.98 1.039-3.861V45.7802c0-2.2275-.346-3.861-1.039-4.9005-.693-1.089-2.03-1.6335-4.01-1.6335V37.687c1.584.1485 3.119.2227 4.604.2227 1.881 0 3.638-.0742 5.272-.2227 1.633-.198 3.143-.4703 4.529-.8168Zm0 35.3322V47.0779c.478-2.185 1.344-3.9045 2.599-5.1587 1.633-1.6335 3.465-2.4502 5.494-2.4502 1.485 0 2.772.5692 3.861 1.7077 1.089 1.089 1.906 2.871 2.45 5.346.545 2.475.817 5.7668.817 9.8753 0 3.7125-.297 6.9795-.891 9.801-.544 2.8215-1.51 5.0242-2.896 6.6082-1.386 1.5345-3.267 2.3018-5.643 2.3018-1.435 0-2.673-.3217-3.712-.9653-.838-.5185-1.531-1.1656-2.079-1.9413Zm-55.576-35.6292c4.356 0 7.771 1.3118 10.246 3.9353 2.475 2.6235 3.713 6.8062 3.713 12.5482h-21.586c-.073.5368-.129 1.106-.17 1.7078v2.2275c0 3.4155.495 6.237 1.485 8.4645.99 2.2275 2.277 3.861 3.861 4.9005 1.584 1.0395 3.218 1.5592 4.901 1.5592 1.138 0 2.302-.1732 3.49-.5197 1.188-.3465 2.351-.99 3.489-1.9305 1.139-.9405 2.178-2.277 3.119-4.0095l1.411.594c-.545 1.7325-1.461 3.465-2.748 5.1975-1.237 1.683-2.846 3.069-4.826 4.158-1.98 1.089-4.306 1.6335-6.979 1.6335-3.366 0-6.336-.7425-8.91-2.2275-2.574-1.485-4.579-3.6878-6.015-6.6083-1.435-2.97-2.153-6.5835-2.153-10.8405 0-4.5045.743-8.2912 2.228-11.3602 1.534-3.069 3.638-5.3955 6.311-6.9795 2.673-1.6335 5.717-2.4503 9.133-2.4503Zm-7.827 15.0728h13.173c.099-2.4255-.05-4.653-.446-6.6825-.396-2.079-1.039-3.7373-1.93-4.9748-.842-1.2375-1.956-1.8562-3.342-1.8562-1.881 0-3.514 1.1137-4.9 3.3412-1.331 2.0908-2.182 5.4815-2.555 10.1723Zm-23.445-14.4045c-1.534-.4455-3.217-.6683-5.049-.6683-3.415 0-6.509.8168-9.281 2.4503-2.7225 1.6335-4.851 3.9847-6.3855 7.0537-1.5345 3.0195-2.3017 6.7073-2.3017 11.0633 0 4.4055.7425 8.0932 2.2275 11.0632 1.5345 2.97 3.5887 5.1975 6.1627 6.6825 2.574 1.4356 5.445 2.1533 8.613 2.1533 2.772 0 5.123-.5693 7.054-1.7078 1.93-1.1385 3.49-2.574 4.678-4.3065 1.237-1.7325 2.128-3.465 2.673-5.1975l-1.411-.5197c-.941 1.7325-2.005 3.069-3.193 4.0095-1.138.9405-2.302 1.6087-3.49 2.0047-1.188.396-2.301.594-3.341.594-1.732 0-3.366-.4702-4.9-1.4107-1.535-.99-2.797-2.6483-3.7872-4.9748-.9405-2.3265-1.4108-5.4945-1.4108-9.504 0-2.871.2228-5.3955.6683-7.5735.495-2.2275 1.1637-4.0837 2.0047-5.5687.891-1.5345 1.931-2.673 3.119-3.4155 1.188-.792 2.524-1.188 4.009-1.188 1.139 0 2.178.2227 3.119.6682.94.396 1.633.9158 2.079 1.5593-1.188.297-2.203.9157-3.045 1.8562-.841.9405-1.262 2.1285-1.262 3.564 0 1.485.47 2.673 1.411 3.564.99.891 2.252 1.3365 3.787 1.3365 1.485 0 2.722-.495 3.712-1.485.99-.99 1.485-2.3017 1.485-3.9352 0-1.3365-.346-2.5493-1.039-3.6383-.693-1.1385-1.634-2.079-2.822-2.8215-1.138-.7425-2.5-1.3117-4.084-1.7077Zm-42.8333-.6683c4.356 0 7.7715 1.3118 10.2465 3.9353 2.475 2.6235 3.7125 6.8062 3.7125 12.5482H61.2636c-.0726.5368-.129 1.106-.1691 1.7078v2.2275c0 3.4155.495 6.237 1.485 8.4645.99 2.2275 2.277 3.861 3.861 4.9005 1.584 1.0395 3.2175 1.5592 4.9005 1.5592 1.1385 0 2.3017-.1732 3.4897-.5197 1.188-.3465 2.3513-.99 3.4898-1.9305 1.1385-.9405 2.178-2.277 3.1185-4.0095l1.4107.594c-.5445 1.7325-1.4602 3.465-2.7472 5.1975-1.2375 1.683-2.8463 3.069-4.8263 4.158-1.98 1.089-4.3065 1.6335-6.9795 1.6335-3.366 0-6.336-.7425-8.91-2.2275-2.574-1.485-4.5787-3.6878-6.0142-6.6083-1.4355-2.97-2.1533-6.5835-2.1533-10.8405 0-4.5045.7425-8.2912 2.2275-11.3602 1.5345-3.069 3.6383-5.3955 6.3113-6.9795 2.673-1.6335 5.7172-2.4503 9.1327-2.4503ZM61.0644 51.646h13.1723c.099-2.4255-.0495-4.653-.4455-6.6825-.396-2.079-1.0395-3.7373-1.9305-4.9748-.8415-1.2375-1.9552-1.8562-3.3412-1.8562-1.881 0-3.5145 1.1137-4.9005 3.3412-1.3305 2.0908-2.182 5.4815-2.5546 10.1723ZM5.42497 23.5794c-1.9305-.0495-3.5145-.099-4.751996-.1485v1.485c1.633496.0495 2.846246.2475 3.638246.594.8415.297 1.386.891 1.6335 1.782.297.8415.4455 2.178.4455 4.0095v36.828c0 1.782-.1485 3.1185-.4455 4.0095-.2475.891-.792 1.485-1.6335 1.782-.792.297-2.00475.495-3.638246.594v1.485c1.237496-.099 2.821496-.1485 4.751996-.1485 1.9305-.0495 4.00951-.0742 6.23703-.0742 1.98 0 3.9352.0247 5.8657.0742 1.9305 0 3.5145.0495 4.752.1485v-1.485c-1.584-.099-2.7967-.297-3.6382-.594-.792-.297-1.3365-.891-1.6335-1.782-.297-.891-.4455-2.2275-.4455-4.0095V51.0519H22.1312c1.7325 0 3.0443.4455 3.9353 1.3365s1.584 2.1285 2.079 3.7125c.5445 1.584 1.0147 3.4155 1.4107 5.4945l1.4108 7.425c.594 3.1185 1.7077 5.247 3.3412 6.3855 1.6335 1.089 3.6383 1.6335 6.0143 1.6335 2.1285 0 3.8857-.3465 5.2717-1.0395 1.386-.7425 2.6978-1.881 3.9353-3.4155l-1.0395-.891c-.495.6435-.99 1.1633-1.485 1.5593-.495.3465-1.089.5197-1.782.5197-.99.0495-1.7573-.3465-2.3018-1.188-.495-.891-.9652-2.3512-1.4107-4.3807l-1.7078-7.6478c-.6435-3.069-1.9552-5.346-3.9352-6.831-1.9305-1.5345-4.95-2.4997-9.0585-2.8957-.1166-.0195-.2353-.0385-.3561-.0571 1.9285-.2211 3.6312-.5733 5.1081-1.0567 2.772-.9405 4.95-2.1285 6.534-3.564 1.584-1.4355 2.6977-2.9947 3.3412-4.6777.6435-1.7325.9653-3.4155.9653-5.049 0-2.6235-.7178-4.9005-2.1533-6.831-1.4355-1.9305-3.6135-3.4155-6.534-4.455-2.871-1.089-6.534-1.6335-10.989-1.6335-.891 0-2.4255.0247-4.6035.0742-2.178.0495-4.4797.0743-6.9052.0743-1.93053 0-3.86103-.0248-5.79153-.0743ZM16.5625 49.5669h3.7867c3.1185 0 5.4945-.5445 7.128-1.6335 1.683-1.1385 2.7968-2.6235 3.3413-4.455.594-1.881.891-3.96.891-6.237 0-3.9105-.7673-6.93-2.3018-9.0585-1.5345-2.178-4.1827-3.267-7.9447-3.267-2.0295 0-3.366.4208-4.0095 1.2623-.594.8415-.891 2.5492-.891 5.1232v18.2655ZM8.90374.0379639V4.99396c.23334-.52266.55534-.89133.966-1.106.41996-.21466.87266-.322 1.35796-.322.3827 0 .6954.05134.938.154.2427.10267.4387.23334.588.392.1587.17734.2707.406.336.686.0747.28.112.65801.112 1.134v3.766c0 .39204.07.65804.21.79804.1494.14.3967.21.742.21V11c-.168-.0094-.4246-.0187-.77-.028-.3453-.0187-.686-.028-1.022-.028-.336 0-.6673.0093-.994.028-.3266.0093-.574.0186-.742.028v-.294c.2987 0 .5087-.07.63-.21.1214-.14.182-.406.182-.79804v-4.242c0-.252-.0233-.476-.07-.672-.0466-.20533-.14-.364-.28-.476-.1306-.12133-.3313-.182-.602-.182-.2986 0-.56929.084-.81196.252-.23333.15867-.41999.38734-.56.686-.14.28934-.21.62067-.21.994v3.64c0 .39204.06067.65804.182.79804.13067.14.34067.21.63.21V11c-.15866-.0094-.39666-.0187-.714-.028-.308-.0187-.63-.028-.966-.028-.336 0-.686.0093-1.05.028-.35466.0093-.62066.0186-.798.028v-.294c.34534 0 .588-.07.728-.21.14934-.14.224-.406.224-.79804v-7.98c0-.42-.07-.727995-.21-.923996-.13066-.205333-.378-.308-.742-.308V.191965c.29867.027999.588.041999.868.041999.35467 0 .686-.014.994-.041999.308-.037334.59267-.088668.854-.1540011ZM37.5463 4.99396V.0379639c-.2613.0653331-.546.1166671-.854.1540011-.308.027999-.6393.041999-.994.041999-.28 0-.5693-.014-.868-.041999v.293999c.364 0 .6114.102667.742.308.14.196001.21.503996.21.923996v7.98c0 .39204-.0746.65804-.224.79804-.14.14-.3826.21-.728.21V11c.1774-.0094.4434-.0187.798-.028.364-.0187.714-.028 1.05-.028.336 0 .658.0093.966.028.3174.0093.5554.0186.714.028v-.294c-.2893 0-.4993-.07-.63-.21-.1213-.14-.182-.406-.182-.79804v-3.64c0-.37333.07-.70466.21-.994.14-.29866.3267-.52733.56-.686.2427-.168.5134-.252.812-.252.2707 0 .4714.06067.602.182.14.112.2334.27067.28.476.0467.196.07.42.07.672v4.242c0 .39204-.0606.65804-.182.79804-.1213.14-.3313.21-.63.21V11c.168-.0094.4154-.0187.742-.028.3267-.0187.658-.028.994-.028.336 0 .6767.0093 1.022.028.3454.0093.602.0186.77.028v-.294c-.3453 0-.5926-.07-.742-.21-.14-.14-.21-.406-.21-.79804v-3.766c0-.47599-.0373-.854-.112-1.134-.0653-.28-.1773-.50866-.336-.686-.1493-.15866-.3453-.28933-.588-.392-.2426-.10266-.5553-.154-.938-.154-.4853 0-.938.10734-1.358.322-.4106.21467-.7326.58334-.966 1.106ZM65.027.0379639V9.47396c0 .42.07.73264.21.93804.14.196.3873.294.742.294V11c-.2893-.028-.5787-.042-.868-.042-.3453 0-.672.014-.98.042-.308.028-.5973.0793-.868.154V9.92659c-.1299.33951-.3119.61331-.546.82141-.336.2986-.7793.448-1.33.448-.56 0-1.0593-.1354-1.498-.406-.4293-.28-.7653-.7-1.008-1.26004-.2333-.56933-.35-1.288-.35-2.156 0-.84933.14-1.554.42-2.114.28-.56933.658-.994 1.134-1.274.476-.28 1.008-.42 1.596-.42.4107 0 .7793.07934 1.106.238.1859.09028.3445.2153.476.37506V1.71796c0-.42-.07-.727995-.21-.923996-.1307-.205333-.378-.308-.742-.308V.191965c.2987.027999.588.041999.868.041999.3547 0 .686-.014.994-.041999.308-.037334.5927-.088668.854-.1540011ZM62.829 10.244c.216-.2235.3607-.52118.434-.89318V4.58796c-.1195-.19413-.2688-.34346-.448-.448-.224-.13066-.476-.196-.756-.196-.504 0-.91.28467-1.218.854-.2987.56-.448 1.42334-.448 2.59 0 .784.0607 1.41867.182 1.904.1213.476.294.82134.518 1.03604.2333.2146.5087.322.826.322.336 0 .6393-.1354.91-.406ZM69.1681.472016c-.2147-.186666-.49-.279999-.826-.279999-.336 0-.6113.093333-.826.279999-.2147.186667-.322.434-.322.742004 0 .308.1073.55533.322.742.2147.18666.49.28.826.28.336 0 .6113-.09334.826-.28.2147-.18667.322-.434.322-.742 0-.308004-.1073-.555337-.322-.742004Zm.154 9.226004v-6.09c-.2613.06533-.5507.11666-.868.154-.308.028-.6347.042-.98.042-.28 0-.5694-.014-.868-.042v.294c.364 0 .6113.10266.742.308.14.196.21.50866.21.938v4.396c0 .39198-.0747.65798-.224.79798-.14.14-.3827.21-.728.21V11c.1773-.0093.4433-.0186.798-.028.3547-.0186.7046-.028 1.05-.028.3546 0 .7046.0094 1.05.028.3453.0094.602.0187.77.028v-.294c-.3454 0-.5927-.07-.742-.21-.14-.14-.21-.406-.21-.79798ZM81.981 13.632c-.5507 0-1.05-.0513-1.498-.154-.448-.1026-.8027-.2566-1.064-.462-.2614-.196-.392-.448-.392-.756 0-.2986.1306-.5646.392-.798.2613-.2333.644-.4106 1.148-.532l.098.224c-.1774.1027-.3127.2427-.406.42-.0934.1774-.14.364-.14.56 0 .4014.182.7094.546.924.3733.224.868.336 1.484.336.42 0 .8073-.056 1.162-.168.3546-.112.6393-.2846.854-.518.2146-.2333.322-.5226.322-.868 0-.2893-.1074-.532-.322-.728-.2054-.196-.6207-.294-1.246-.294h-.924c-.3454 0-.6627-.0373-.952-.112-.28-.0746-.504-.196-.672-.364-.168-.168-.252-.40131-.252-.69997 0-.364.1493-.69067.448-.98.2307-.23073.5617-.45589.9929-.67547-.2932-.035-.5682-.09917-.8249-.19253-.4014-.15867-.7187-.40134-.952-.728-.2334-.336-.35-.76067-.35-1.274 0-.51334.1166-.93334.35-1.26.2333-.32667.5506-.56934.952-.728.4106-.15867.868-.238 1.372-.238.5133 0 .9706.07933 1.372.238.2738.10823.5084.25555.704.44197.1236-.17036.2762-.32235.458-.45597.3173-.24267.6533-.364 1.008-.364.2706 0 .4806.07466.63.224.1586.14933.238.35933.238.63 0 .28-.0747.48533-.224.616-.1494.13066-.3127.196-.49.196-.1587 0-.3034-.05134-.434-.154-.1307-.112-.2053-.28-.224-.504-.0161-.20097.0371-.44347.1595-.72751-.2627.11681-.4652.24265-.6075.37751-.1118.10592-.2162.23411-.3132.38457.0161.02078.0318.04192.0472.06343.2333.32666.35.74666.35 1.26 0 .51333-.1167.938-.35 1.274-.2334.32666-.5507.56933-.952.728-.4014.14933-.8587.224-1.372.224-.0543 0-.1081-.00087-.1613-.00261-.1645.09372-.316.19259-.4547.29661-.1774.14-.266.31733-.266.532 0 .29866.2053.448.616.448h1.582c.4853 0 .9146.06066 1.288.182.3826.12133.686.31266.91.57397.224.2614.336.6067.336 1.036 0 .448-.1447.8634-.434 1.246-.2893.392-.728.7047-1.316.938-.5787.2427-1.3207.364-2.226.364Zm.126-5.86597c.28 0 .4993-.14.658-.42.168-.28934.252-.80734.252-1.554 0-.74667-.084-1.26-.252-1.54-.1587-.28934-.378-.434-.658-.434s-.504.14466-.672.434c-.1587.28-.238.79333-.238 1.54 0 .74666.0793 1.26466.238 1.554.168.28.392.42.672.42Zm-6.1683-4.20011c.392 0 .7047.05133.938.154.2427.10266.4387.23333.588.392.168.17733.2847.406.35.686.0747.28.112.658.112 1.134v3.766c0 .39198.07.65798.21.79798.1493.14.3967.21.742.21v.294c-.168-.0093-.4293-.0186-.784-.028-.3453-.0186-.6813-.028-1.008-.028-.3453 0-.6813.0094-1.008.028-.3266.0094-.5693.0187-.728.028v-.294c.2987 0 .5087-.07.63-.21.1214-.14.182-.406.182-.79798v-4.242c0-.252-.0233-.476-.07-.672-.0466-.20534-.14-.364-.28-.476-.14-.12134-.3406-.182-.602-.182-.308 0-.5833.084-.826.252-.2333.168-.42.40133-.56.7-.1306.28933-.196.616-.196.98v3.64c0 .39198.0607.65798.182.79798.1214.14.3314.21.63.21v.294c-.1586-.0093-.3966-.0186-.714-.028-.3173-.0186-.6393-.028-.966-.028-.3453 0-.6953.0094-1.05.028-.3546.0094-.6207.0187-.798.028v-.294c.3454 0 .588-.07.728-.21.1494-.14.224-.406.224-.79798v-4.41c0-.42-.07-.728-.21-.924-.1306-.20534-.378-.308-.742-.308v-.294c.2987.028.588.042.868.042.3454 0 .672-.014.98-.042.3174-.03734.6067-.08867.868-.154v1.4c.2334-.532.5554-.90534.966-1.12.4107-.21467.8587-.322 1.344-.322Zm-20.174.392c-.4947-.26134-1.064-.392-1.708-.392-.644 0-1.218.13066-1.722.392-.504.252-.9007.658-1.19 1.218-.2893.56-.434 1.29733-.434 2.212 0 .91466.1447 1.652.434 2.212.2893.55998.686.96598 1.19 1.21798.504.252 1.078.378 1.722.378.644 0 1.2133-.126 1.708-.378.504-.252.9007-.658 1.19-1.21798.2987-.56.448-1.29734.448-2.212 0-.91467-.1493-1.652-.448-2.212-.2893-.56-.686-.966-1.19-1.218Zm-2.786.728c.28-.56.6393-.84 1.078-.84.4293 0 .784.28 1.064.84.28.55066.42 1.45133.42 2.702 0 1.25066-.14 2.15133-.42 2.70198-.28.5507-.6347.826-1.064.826-.4387 0-.798-.2753-1.078-.826-.2707-.55065-.406-1.45132-.406-2.70198 0-1.25067.1353-2.15134.406-2.702Zm-7.6825 6.41198c-.4013 0-.742-.0746-1.022-.224-.28-.1586-.49-.3686-.63-.63-.14-.27065-.21-.56932-.21-.89598 0-.40134.0933-.728.28-.98.1867-.26134.4247-.46667.714-.616.2987-.15867.6113-.28934.938-.392.3267-.112.6347-.21467.924-.308.2893-.10267.5273-.21934.714-.35.1867-.13067.28-.30334.28-.518v-1.022c0-.29867-.0467-.54134-.14-.728-.084-.196-.2147-.34067-.392-.434-.168-.10267-.3827-.154-.644-.154-.196 0-.4013.028-.616.084-.2147.056-.392.16333-.532.322.2427.06533.4293.18666.56.364.14.17733.21.392.21.644 0 .28933-.098.518-.294.686-.1867.15866-.4247.238-.714.238-.308 0-.5413-.098-.7-.294-.1587-.196-.238-.42467-.238-.686 0-.26134.0653-.476.196-.644.1307-.17734.3127-.336.546-.476.2333-.15867.532-.28467.896-.378.364-.09334.7607-.14 1.19-.14.4107 0 .7747.04666 1.092.14.3173.084.588.238.812.462.224.21466.3687.48066.434.798.0653.31733.098.70466.098 1.162v3.836c0 .23338.028.40138.084.50398.056.0934.1447.14.266.14.0933 0 .182-.0233.266-.07.084-.0466.1773-.112.28-.196l.154.238c-.2053.1587-.42.2847-.644.378-.224.0934-.4947.14-.812.14-.3267 0-.588-.0466-.784-.14-.1867-.0933-.3267-.2286-.42-.406-.084-.1773-.1307-.3873-.14-.62998-.224.37338-.4993.66268-.826.86798-.3267.2054-.7187.308-1.176.308Zm.84-.784c.224 0 .4293-.0606.616-.182.196-.1213.3733-.30332.532-.54598v-2.828c-.0933.14-.2287.266-.406.378-.168.112-.35.224-.546.336-.196.112-.3827.24266-.56.392-.168.14-.3127.31733-.434.532-.112.20533-.168.47133-.168.798 0 .364.0887.644.266.83998.1773.1867.4107.28.7.28ZM30.1936.891968c.616 0 1.12.093333 1.512.280002.4014.17733.756.38733 1.064.63.1867.14.3267.15866.42.056.1027-.112.1727-.36867.21-.77h.322c-.0186.35466-.0326.78867-.042 1.302-.0093.51333-.014 1.19-.014 2.03h-.322c-.056-.42-.1166-.77-.182-1.05-.0653-.28934-.1586-.53667-.28-.742-.112-.20534-.2706-.40134-.476-.588-.252-.28-.5553-.48534-.91-.616-.3453-.14-.7093-.21-1.092-.21-.4853 0-.91.13066-1.274.392-.3546.252-.6533.602-.896 1.05-.2333.43866-.4106.952-.532 1.54-.112.588-.168 1.21333-.168 1.876 0 .68133.0607 1.316.182 1.904.1307.57867.3174 1.08733.56 1.526.252.42933.56.76533.924 1.00803.3734.2426.8027.364 1.288.364.3454 0 .7-.0654 1.064-.196.364-.1307.6627-.3314.896-.602.308-.28003.518-.61137.63-.99403.112-.392.2007-.91.266-1.554h.322c0 .87733.0047 1.58667.014 2.128.0094.53203.0234.98003.042 1.34403h-.322c-.0373-.4014-.1026-.6534-.196-.756-.084-.1027-.2286-.0887-.434.042-.3453.2426-.714.4573-1.106.644-.3826.1773-.8773.266-1.484.266-.952 0-1.7873-.2007-2.506-.602-.7186-.4014-1.2786-.98003-1.68-1.73603-.392-.756-.588-1.666-.588-2.73 0-1.04534.2054-1.96.616-2.744.4107-.784.9754-1.39534 1.694-1.834.7187-.43867 1.5447-.658002 2.478-.658002ZM20.1677 4.30792c-.4667-.49467-1.1107-.742-1.932-.742-.644 0-1.218.154-1.722.462-.504.29866-.9007.73733-1.19 1.316-.28.57866-.42 1.29266-.42 2.142 0 .80266.1353 1.484.406 2.044.2707.55068.6487.96598 1.134 1.24598.4853.28 1.0453.42 1.68.42.504 0 .9427-.1026 1.316-.308.3733-.2053.6767-.4666.91-.784.2427-.32665.4153-.65332.518-.97998l-.266-.112c-.1773.32666-.3733.57866-.588.756-.2147.17733-.434.29868-.658.36398-.224.0654-.4433.098-.658.098-.3173 0-.6253-.098-.924-.29398-.2987-.196-.5413-.504-.728-.924-.1867-.42-.28-.952-.28-1.596v-.42c.0076-.11347.0182-.2208.0319-.322h4.0701c0-1.08267-.2333-1.87134-.7-2.366Zm-.924 2.1H16.76c.0703-.88445.2308-1.52379.4817-1.918.2613-.42.5693-.63.924-.63.2613 0 .4713.11666.63.35.168.23333.2893.546.364.938.0747.38266.1027.80266.084 1.26ZM4.00992 3.77594v-2.31c-.26134.12134-.53667.21-.826.266-.28934.056-.602.08867-.938.098v1.946h-1.232v.28h1.232v4.718c0 .49467.03266.89134.098 1.19.07466.29866.21466.55536.42.76996.15866.1494.34533.2614.56.336.224.084.49466.126.812.126.532 0 .94266-.1493 1.232-.448.29866-.308.518-.6906.658-1.14796l-.252-.112c-.14.38267-.29867.65796-.476.82596-.17734.1587-.37334.238-.588.238-.224 0-.39667-.07-.518-.21-.12134-.14-.182-.37796-.182-.71396v-5.572h1.792v-.28h-1.792ZM327.249 35.397c.298.0299.627.0448.985.0448h7.655c.687-1.1789 1.06-1.8057 1.12-1.8803.074-.0746.156-.1119.246-.1119.179 0 .716.3805 1.612 1.1416.895.7462 1.343 1.2162 1.343 1.4102 0 .1194-.15.1791-.448.1791h-5.775c-.448.4925-1.179 1.4699-2.194 2.9324h3.022c.373-.6715.597-1.067.671-1.1864.075-.1194.15-.1791.224-.1791.15 0 .552.2164 1.209.6492.657.4328 1.134.7611 1.433.9849.313.2239.47.4179.47.582 0 .1492-.239.3358-.717.5596v5.5962c0 .5223.008.9476.023 1.2759l.045.8282c0 .1493-.03.2612-.09.3358-.045.0746-.186.1642-.425.2686-.224.1045-.478.1866-.761.2462-.284.0448-.575.0672-.873.0672-.299 0-.493-.0373-.582-.1119-.075-.0896-.112-.2836-.112-.582v-8.5957h-5.305c-.06.1343-.165.2313-.314.291v8.4166c0 .2388-.037.4104-.112.5148-.074.0896-.313.194-.716.3134-.388.1045-.746.1567-1.074.1567-.329 0-.523-.0373-.582-.1119-.06-.0746-.09-.1716-.09-.291 0-.1343.015-.4999.045-1.0968.03-.6119.045-1.3207.045-2.1266v-5.4394c0-.9104-.03-1.6864-.09-2.328.866.194 1.768.5148 2.709.9625h.761c.179-1.1342.268-2.1116.268-2.9324h-2.373c-.134 0-.276.0224-.425.0672.224.2238.336.4029.336.5372 0 .1343-.157.2015-.47.2015h-2.91c-.015.2089-.157.3283-.425.3581v14.2366c0 .582-.12 1.0223-.359 1.3207-.238.2985-.641.5223-1.208.6716-.553.1492-.993.2238-1.321.2238-.328 0-.515-.1343-.56-.4029-.059-.4925-.216-.8656-.47-1.1193-.239-.2536-.589-.4253-1.052-.5148-.448-.0895-.671-.1567-.671-.2015 0-.0447.298-.082.895-.1119.612-.0448 1.074-.097 1.388-.1567.313-.0746.507-.194.582-.3581.089-.1642.134-.4626.134-.8954V36.9864h-1.813c-.298 0-.567.082-.806.2462l-.582-1.0521c.358.0448.731.0672 1.119.0672h4.724c.074-.1493.246-.4477.514-.8954.269-.4626.441-.7387.515-.8283.09-.0895.179-.1343.269-.1343.164 0 .612.3358 1.343 1.0073Zm5.82 14.1695c-.433 1.1342-1.075 2.0519-1.925 2.7533-.836.7014-2.007 1.2237-3.515 1.5669-1.492.3582-2.566.5373-3.223.5373-.239 0-.358-.0373-.358-.112 0-.0746.164-.1641.492-.2686 1.791-.5372 3.261-1.3207 4.41-2.3504 1.164-1.0296 1.851-2.2235 2.06-3.5815.223-1.358.335-2.9473.335-4.7679 0-.7462-.022-1.4998-.067-2.2609.552 0 1.157.0448 1.813.1343.672.0747 1.067.1493 1.187.2239.134.0746.201.1641.201.2686 0 .1045-.06.2015-.179.291-.119.0746-.209.1716-.269.291-.044.1194-.067.3656-.067.7387-.044 2.6862-.306 4.753-.783 6.2005 4.342.3433 6.514 1.4252 6.514 3.2458 0 .4775-.149.9029-.448 1.2759-.298.388-.686.582-1.164.582-.463 0-.858-.3656-1.186-1.0968-.448-.9999-.993-1.7684-1.634-2.3056-.627-.5522-1.358-1.0073-2.194-1.3655Zm2.731 8.6962h-5.014c-.821-.4477-1.814-.8506-2.978-1.2088.03 1.1789.045 2.7533.045 4.7232-.94-1.0297-1.507-1.5446-1.701-1.5446-.09 0-.194.0821-.313.2463-.12.1492-.403.5596-.851 1.2311v-3.8278c.373-.1492.56-.291.56-.4253 0-.1343-.097-.2462-.291-.3357-.179-.0896-.56-.194-1.142-.3134-.567-.1343-1.171-.2239-1.813-.2686.06.7013.089 1.5072.089 2.4175v2.7533h-2.35c-.403 0-.776-.0298-1.119-.0895l.38.9625c.284-.0895.605-.1343.963-.1343h2.126v3.8502c-1.179.2387-2.313.4103-3.402.5148.209.6715.455 1.3356.739 1.9922.283.6417.447.9924.492 1.0521.045.0448.097.0672.157.0672.059 0 .276-.1418.649-.4253.373-.2985.828-.6194 1.365-.9626v4.6784c0 .4477-.119.7611-.358.9402-.239.1641-.776.2462-1.611.2462-.209 0-.433-.0075-.672-.0224-.239-.0149-.358.0149-.358.0895 0 .0597.224.1642.671.3134.448.1343.776.2985.985.4925.224.2089.358.5671.403 1.0744.03.4328.246.6492.649.6492.418 0 .896-.1045 1.433-.3134.537-.2089.91-.5074 1.119-.8954.224-.373.336-.955.336-1.746v-7.0287c.627-.3433 1.574-.8432 2.843-1.4998-.075 2.7011-.396 4.9619-.963 6.7825-.567 1.8206-1.477 3.4323-2.731 4.8351-.119.1343-.179.2313-.179.291 0 .0597.015.0895.045.0895.224 0 1.015-.7312 2.373-2.1936 1.358-1.4625 2.373-3.2682 3.044-5.4171.03.2238.045.6342.045 1.2311v4.5217c0 .7611-.015 1.3133-.045 1.6565-.015.1492.03.2238.134.2238.478 0 .993-.082 1.545-.2462.567-.1492.851-.3358.851-.5596v-.9402h3.984v1.164c0 .1493.022.2388.067.2686.06.0448.306.0672.739.0672s.88-.097 1.343-.291c.463-.194.694-.3656.694-.5148l-.045-.5149c-.015-.194-.022-.4178-.022-.6715v-3.7606c.433-.1344.649-.2985.649-.4925s-.179-.4029-.537-.6268l-1.231-.8506c-.463-.3283-.754-.4925-.873-.4925-.12 0-.217.0374-.291.112-.06.0597-.291.4104-.694 1.052h-.582v-2.9547h4.387c.478 0 .716-.1119.716-.3358 0-.2388-.388-.6491-1.164-1.2311-.761-.597-1.201-.8954-1.32-.8954-.06 0-.112.0224-.157.0671-.03.0448-.149.2537-.358.6268l-.605 1.0297h-1.499v-2.2385c.358-.1492.537-.2835.537-.4029s-.075-.2089-.224-.2686c-.134-.0746-.507-.1716-1.119-.291-.597-.1343-1.194-.2164-1.791-.2462.045.8058.067 1.4699.067 1.9922v1.455h-2.507c.06-.5223.149-1.746.269-3.6711h5.641v.3805c0 .2388.052.3657.156.3806h.784c.418 0 .746-.0448.985-.1343.253-.1045.455-.1866.604-.2463.164-.0746.246-.194.246-.3581l-.022-1.1864V59.561c.507-.1492.761-.3134.761-.4925 0-.194-.157-.4029-.47-.6267-.313-.2388-.739-.5373-1.276-.8954-.522-.3582-.873-.5373-1.052-.5373-.179 0-.493.4179-.94 1.2536Zm.224.7387v3.1338h-5.597c.03-.8655.045-1.5296.045-1.9922 0-.4776.067-.8581.202-1.1416h5.35Zm-11.036 3.4472h2.865l-.022 2.5966-2.843.6939v-3.2905Zm5.037 4.8351h2.596v2.9547h-.559c-.717-.3581-1.538-.6715-2.463-.9401.164-.5671.306-1.2386.426-2.0146Zm5.909 3.6934v4.074h-3.984v-3.9844c.044-.0149.104-.0448.179-.0896h3.805Zm-22.317-8.9314h-3.671c.432-.8207.761-1.5594.984-2.216.224-.6716.388-1.1118.493-1.3207.104-.2239.254-.3806.448-.4701.194-.1045.291-.2239.291-.3582 0-.0895-.075-.1716-.224-.2462-.149-.0746-.62-.2015-1.41-.3805-.776-.1791-1.538-.3209-2.284-.4253-.283 2.5966-.679 4.7604-1.186 6.4915-.493 1.7311-1.194 3.3129-2.104 4.7455V57.8598c.373-.1343.559-.2835.559-.4477 0-.1791-.283-.3208-.85-.4253-.567-.1194-1.328-.2164-2.283-.291.029.582.044 1.2461.044 1.9922v10.2746c-.835.2984-1.485.5223-1.947.6715v-8.5285c.448-.1791.671-.3358.671-.4701 0-.1492-.209-.291-.626-.4253-.418-.1343-1.261-.2686-2.53-.4029.045.6417.067 1.3431.067 2.1041v7.5436c0 .209-.044.3657-.134.4701-.09.1045-.291.2313-.604.3806-.09.0597-.135.1268-.135.2014s.142.4701.426 1.1864c.283.7014.477 1.1715.582 1.4102.119.2239.209.3358.268.3358.135 0 .381-.2015.739-.6044.373-.4178 1.447-1.5072 3.223-3.2681v7.2526c0 .2238.06.3358.179.3358.254 0 .545-.0299.873-.0896.329-.0597.627-.1492.896-.2686.283-.1194.455-.2089.515-.2686.074-.0597.112-.1418.112-.2462l-.023-.8059c-.015-.2835-.022-.7909-.022-1.5221v-5.529c1.059-.8954 2.044-1.9326 2.955-3.1115.164 2.5518.776 4.753 1.835 6.6035-.642 1.149-1.433 2.1787-2.373 3.089-.94.9103-1.94 1.6341-2.999 2.1713-.254.1194-.381.2239-.381.3134 0 .0896.06.1343.179.1343.269 0 1.127-.3805 2.575-1.1416 1.447-.7611 2.783-1.7833 4.006-3.0667.388.5074.814 1.0073 1.276 1.4998.478.4925.993.9775 1.545 1.455.552.4925.873.7611.962.8058.09.0597.179.0896.269.0896.09 0 .194-.0672.313-.2015.911-1.1938 1.814-1.9101 2.709-2.1489.194-.0597.291-.1119.291-.1567 0-.0597-.097-.1268-.291-.2015-2.209-.8357-4.022-1.8728-5.44-3.1114 1-1.6117 1.858-3.6935 2.575-6.2453.104-.3731.201-.6492.291-.8283.089-.179.201-.276.335-.291.284-.0298.426-.1343.426-.3133 0-.1344-.097-.2463-.291-.3358-.179-.0896-.881-.3059-2.104-.6492h3.29c.463 0 .694-.1044.694-.3134 0-.2238-.395-.6864-1.186-1.3878-.791-.7163-1.269-1.0745-1.433-1.0745-.06 0-.119.0299-.179.0896s-.224.2984-.492.7163c-.254.4178-.485.8282-.694 1.2311Zm-4.074.7387h2.753c-.194 2.5519-.709 4.8873-1.545 7.0064-1.164-1.4475-1.977-3.1338-2.44-5.0589.508-.7014.918-1.3505 1.232-1.9475Zm2.708-18.7021v-5.9096c1.537.776 2.448 2.1415 2.731 4.0964.119.8954.507 1.3431 1.164 1.3431.463 0 .851-.1567 1.164-.4701.313-.3283.47-.7461.47-1.2535 0-.97-.47-1.8281-1.41-2.5743-.925-.761-2.298-1.2684-4.119-1.5221v-2.8205c.403-.1641.605-.3357.605-.5148 0-.1791-.254-.3283-.762-.4477-.492-.1194-1.328-.2239-2.507-.3134.03.582.045 1.2461.045 1.9922v3.4249c-.418-.2686-1.403-.6716-2.955-1.2088-.209 2.9995-1.044 5.7155-2.507 8.148-.149.2537-.224.4104-.224.4701 0 .0298.008.0448.023.0448.149 0 .709-.485 1.679-1.455.985-.97 2.029-2.4922 3.134-4.5665.283-.5372.567-.8208.85-.8506v4.3874c0 .7461-.007 1.4177-.022 2.0146l-.045.873c0 .3134.112.4701.336.4701.641 0 1.156-.0672 1.544-.2015.388-.1343.627-.2388.717-.3134.104-.0895.156-.2164.156-.3805l-.044-1.0073c-.015-.388-.023-.873-.023-1.455Zm-13.99-4.5441h2.014v3.6934c-1.492.4925-2.686.8357-3.581 1.0297.85 1.7908 1.365 2.6862 1.544 2.6862.075 0 .165-.0522.269-.1567.478-.4328 1.067-.9028 1.768-1.4102v5.417c0 .3134-.059.5373-.179.6716-.104.1194-.343.2014-.716.2462-.373.0448-1.015.0672-1.925.0672-.239 0-.358.0298-.358.0895 0 .0597.112.1119.336.1567.641.1343 1.096.3358 1.365.6044.284.2686.455.6641.515 1.1864.03.3432.201.5148.515.5148.209 0 .589-.0746 1.141-.2238.567-.1493 1.008-.3731 1.321-.6716.313-.2984.47-.8357.47-1.6117V43.657l2.932-1.8356c.194-.1194.291-.2388.291-.3581 0-.1343-.067-.2015-.201-.2015-.045 0-.09.0075-.134.0224l-2.888 1.0521v-2.7981h3.268c.239 0 .358-.0597.358-.1791s-.388-.5074-1.164-1.164c-.776-.6715-1.261-1.0073-1.455-1.0073-.194 0-.462.5372-.805 1.6117h-.202v-3.783c.418-.1194.627-.2761.627-.4701 0-.2089-.172-.3581-.515-.4477-.328-.1044-1.224-.2014-2.686-.291.06.7014.089 1.5073.089 2.4176v2.5742h-2.238c-.403 0-.776-.0299-1.119-.0895l.38.9625c.284-.0895.605-.1343.963-.1343Zm17.639 5.1261c-.582-.3731-1.261-.7537-2.037-1.1417-.716 2.4922-2.015 4.5964-3.895 6.3125-1.865 1.7012-4.432 3.0667-7.7 4.0964-.239.0746-.359.1418-.359.2015 0 .0746.09.1119.269.1119.701 0 2.149-.3134 4.343-.9402 2.208-.6118 4.021-1.4475 5.439-2.5071 1.418-1.0595 2.634-2.4399 3.649-4.1411.194-.3283.351-.5372.47-.6268.134-.1044.306-.1567.515-.1567.298 0 .447-.0895.447-.2686 0-.0746-.044-.1567-.134-.2462-.074-.0896-.41-.3209-1.007-.6939Z" clip-rule="evenodd"/></svg>