<svg width="16" height="16" viewBox="0 0 16 16" fill="none" xmlns="http://www.w3.org/2000/svg">
<path fill-rule="evenodd" clip-rule="evenodd" d="M8 1C4.13558 1 1 4.13558 1 8C1 11.8644 4.13558 15 8 15C11.8568 15 15 11.8644 15 8C15 4.13558 11.8568 1 8 1ZM12.6236 4.22668C13.4588 5.24403 13.9599 6.54229 13.9751 7.94684C13.7777 7.90891 11.8037 7.5065 9.81453 7.75706C9.76899 7.65836 9.73101 7.55204 9.68547 7.44578C9.56398 7.15729 9.42734 6.86119 9.29067 6.58027C11.4924 5.6844 12.4946 4.39371 12.6236 4.22668ZM8 2.03254C9.51843 2.03254 10.9078 2.60195 11.9631 3.53579C11.8568 3.68764 10.9533 4.8948 8.82753 5.69197C7.84814 3.89262 6.76249 2.41974 6.59545 2.19197C7.04336 2.08568 7.51411 2.03254 8 2.03254ZM5.45664 2.59436C5.61606 2.80694 6.67897 4.28742 7.67354 6.04879C4.87961 6.79285 2.41215 6.77767 2.14642 6.77767C2.53362 4.92516 3.78633 3.38395 5.45664 2.59436ZM2.01735 8.00761C2.01735 7.94684 2.01735 7.88612 2.01735 7.82539C2.27549 7.83296 5.17571 7.87094 8.15943 6.97507C8.33408 7.3091 8.4935 7.65074 8.64536 7.99239C8.56941 8.01518 8.48589 8.03797 8.40998 8.06072C5.32755 9.05529 3.68764 11.7733 3.55098 12.0011C2.60195 10.9458 2.01735 9.54123 2.01735 8.00761ZM8 13.9826C6.6182 13.9826 5.34273 13.5119 4.33297 12.7223C4.43926 12.5022 5.65399 10.1638 9.02493 8.987C9.04011 8.97939 9.04773 8.97939 9.06291 8.97182C9.90562 11.1507 10.2473 12.9805 10.3384 13.5043C9.61713 13.8156 8.82753 13.9826 8 13.9826ZM11.333 12.9577C11.2722 12.5933 10.9533 10.8471 10.1714 8.69847C12.0467 8.40237 13.6865 8.8883 13.8916 8.95664C13.6334 10.6193 12.6768 12.0542 11.333 12.9577Z" fill="white"/>
</svg>
