<svg xmlns="http://www.w3.org/2000/svg" width="16" height="16" fill="none"><path fill="#fff" fill-rule="evenodd" d="M14.342 13.363a.317.317 0 0 0-.118.36l.216.802c.01.038.026.077.026.116a.16.16 0 0 1-.16.16.18.18 0 0 1-.092-.03l-1.05-.603a.505.505 0 0 0-.256-.074.498.498 0 0 0-.14.021c-.491.14-1.02.219-1.568.219-2.65 0-4.8-1.78-4.8-3.977 0-2.195 2.15-3.976 4.8-3.976 2.651 0 4.8 1.78 4.8 3.976 0 1.198-.646 2.277-1.658 3.006ZM9.6 9.68c.331 0 .6-.266.6-.595a.597.597 0 0 0-.6-.596c-.331 0-.6.267-.6.596 0 .329.269.595.6.595Zm3.199 0c.331 0 .6-.266.6-.595a.598.598 0 0 0-.6-.596c-.33 0-.6.267-.6.596 0 .329.27.595.6.595ZM5.862 2c2.923 0 5.347 1.72 5.788 3.967a6.438 6.438 0 0 0-.318-.008c-2.952 0-5.345 1.92-5.345 4.29 0 .4.07.787.196 1.154a7.187 7.187 0 0 1-2.235-.25.613.613 0 0 0-.483.061l-1.283.714a.225.225 0 0 1-.114.035.192.192 0 0 1-.195-.188c0-.047.02-.093.032-.138l.263-.95a.406.406 0 0 0 .022-.118.372.372 0 0 0-.165-.308C.79 9.4 0 8.123 0 6.705 0 4.106 2.624 2 5.862 2ZM3.908 5.867A.68.68 0 0 0 4.6 5.2a.68.68 0 0 0-.692-.668.68.68 0 0 0-.693.668c0 .368.31.667.693.667Zm3.907 0a.68.68 0 0 0 .693-.667.68.68 0 0 0-.693-.668.68.68 0 0 0-.692.668c0 .368.31.667.692.667Z" clip-rule="evenodd"/></svg>