<svg width="32" height="32" viewBox="0 0 32 32" fill="none" xmlns="http://www.w3.org/2000/svg">
<path fill-rule="evenodd" clip-rule="evenodd" d="M16 18.4615C17.3595 18.4615 18.4615 17.3595 18.4615 16C18.4615 14.6405 17.3595 13.5385 16 13.5385C14.6405 13.5385 13.5385 14.6405 13.5385 16C13.5385 17.3595 14.6405 18.4615 16 18.4615ZM16.6527 15.3473L16 14.1538L15.3473 15.3473L14.1538 16L15.3473 16.6527L16 17.8462L16.6527 16.6527L17.8462 16L16.6527 15.3473Z" fill="#FFE699"/>
<path fill-rule="evenodd" clip-rule="evenodd" d="M3.11323 14.7692H2.51673C3.13855 7.86892 8.93779 2.46154 16 2.46154C20.2093 2.46154 23.97 4.38256 26.4531 7.39572L19.6657 16.4455C19.5211 17.6477 18.7988 18.6722 17.7845 19.2332L18.4839 20.0725L27.2212 8.42289C28.4679 10.2656 29.2726 12.4317 29.4833 14.7692H28.8868C28.925 15.1743 28.9445 15.5849 28.9445 16C28.9445 16.4151 28.925 16.8257 28.8868 17.2308H29.4833C28.8615 24.1311 23.0622 29.5385 16 29.5385C9.946 29.5385 4.8201 25.5648 3.08821 20.0834L12.2236 12.5601L13.142 13.6622C13.4031 13.3433 13.7165 13.069 14.0691 12.8522L12.3857 10.8322L2.74542 18.7713C2.64062 18.2675 2.56383 17.7534 2.51673 17.2308H3.11323C3.07502 16.8257 3.05548 16.4151 3.05548 16C3.05548 15.5849 3.07502 15.1743 3.11323 14.7692ZM16 0C7.16344 0 0 7.16344 0 16C0 24.8366 7.16344 32 16 32C24.8366 32 32 24.8366 32 16C32 7.16344 24.8366 0 16 0ZM16.0001 5.53846C13.1584 5.53846 10.5813 6.67148 8.69596 8.51042L7.95192 7.51838C10.0482 5.52854 12.8816 4.30769 16.0001 4.30769V5.53846ZM16.003 5.53846C18.8447 5.53846 21.4217 6.67148 23.3071 8.51042L24.0511 7.51838C21.9548 5.52855 19.1215 4.30769 16.003 4.30769V5.53846ZM8.69596 23.4896C10.1979 24.9545 12.1387 25.9715 14.3026 26.3245L16 23.3846L17.6976 26.325C19.8627 25.9723 21.8046 24.9551 23.3071 23.4896L24.0511 24.4816C21.9548 26.4715 19.1215 27.6923 16.003 27.6923V27.0769H16.0001V27.6923C12.8816 27.6923 10.0482 26.4715 7.95193 24.4816L8.69596 23.4896Z" fill="url(#paint0_linear_1_72)"/>
<defs>
<linearGradient id="paint0_linear_1_72" x1="16" y1="0" x2="16" y2="32" gradientUnits="userSpaceOnUse">
<stop offset="0.275" stop-color="#FFE699"/>
<stop offset="1" stop-color="#C18E34"/>
</linearGradient>
</defs>
</svg>
