<svg width="19" height="19" viewBox="0 0 19 19" fill="none" xmlns="http://www.w3.org/2000/svg">
<g clip-path="url(#clip0_5592_1861)">
<path opacity="0.5" d="M9.50004 17.4168C11.6861 17.4168 13.6653 16.5307 15.098 15.0981C16.5306 13.6654 17.4167 11.6863 17.4167 9.50016C17.4167 7.31405 16.5306 5.33489 15.098 3.90223C13.6653 2.4696 11.6861 1.5835 9.50004 1.5835C7.31393 1.5835 5.33477 2.4696 3.90211 3.90223C2.46948 5.33489 1.58337 7.31405 1.58337 9.50016C1.58337 11.6863 2.46948 13.6654 3.90211 15.0981C5.33477 16.5307 7.31393 17.4168 9.50004 17.4168Z" stroke="white" stroke-width="1.1875" stroke-linejoin="round"/>
<path opacity="0.5" fill-rule="evenodd" clip-rule="evenodd" d="M9.49996 4.354C10.0465 4.354 10.4895 4.79706 10.4895 5.34359C10.4895 5.89011 10.0465 6.33317 9.49996 6.33317C8.95343 6.33317 8.51038 5.89011 8.51038 5.34359C8.51038 4.79706 8.95343 4.354 9.49996 4.354Z" fill="white"/>
<path opacity="0.5" d="M9.69792 13.4582V7.9165H9.30208H8.90625" stroke="white" stroke-width="1.1875" stroke-linecap="round" stroke-linejoin="round"/>
<path opacity="0.5" d="M8.3125 13.4585H11.0833" stroke="white" stroke-width="1.1875" stroke-linecap="round" stroke-linejoin="round"/>
</g>
<defs>
<clipPath id="clip0_5592_1861">
<rect width="19" height="19" fill="white"/>
</clipPath>
</defs>
</svg>
