<svg width="130" height="36" viewBox="0 0 130 36" fill="none" xmlns="http://www.w3.org/2000/svg">
<path d="M57.008 28.144C57.504 28.144 57.752 28.384 57.752 28.864V29.32C57.752 29.816 57.504 30.064 57.008 30.064H36.992C36.496 30.064 36.248 29.816 36.248 29.32V28.864C36.248 28.384 36.496 28.144 36.992 28.144H57.008ZM52.28 15.16C52.776 15.16 53.024 15.408 53.024 15.904V16.336C53.024 16.832 52.776 17.08 52.28 17.08H41.72C41.224 17.08 40.976 16.832 40.976 16.336V15.904C40.976 15.408 41.224 15.16 41.72 15.16H52.28ZM55.88 20.536C56.376 20.536 56.624 20.784 56.624 21.28V21.712C56.624 22.208 56.376 22.456 55.88 22.456H38.12C37.624 22.456 37.376 22.208 37.376 21.712V21.28C37.376 20.784 37.624 20.536 38.12 20.536H55.88ZM47.216 16.072C47.728 16.072 47.984 16.328 47.984 16.84V28.36C47.984 28.872 47.728 29.128 47.216 29.128H46.784C46.272 29.128 46.016 28.872 46.016 28.36V16.84C46.016 16.328 46.272 16.072 46.784 16.072H47.216ZM40.256 23.656C40.736 23.496 41.056 23.656 41.216 24.136L41.96 26.344C42.12 26.808 41.96 27.12 41.48 27.28L41.048 27.448C40.584 27.608 40.264 27.448 40.088 26.968L39.344 24.76C39.184 24.28 39.344 23.96 39.824 23.8L40.256 23.656ZM54.176 23.8C54.656 23.96 54.816 24.28 54.656 24.76L53.912 26.968C53.736 27.448 53.416 27.608 52.952 27.448L52.52 27.28C52.04 27.12 51.88 26.808 52.04 26.344L52.784 24.136C52.944 23.656 53.264 23.496 53.744 23.656L54.176 23.8ZM44 9.208C44.256 8.952 44.552 8.82401 44.888 8.82401H49.112C49.464 8.82401 49.744 8.96 49.952 9.232C52.144 11.776 54.696 13.824 57.608 15.376C58.056 15.632 58.168 15.976 57.944 16.408L57.752 16.792C57.528 17.24 57.192 17.344 56.744 17.104C55.208 16.272 53.768 15.32 52.424 14.248C51.08 13.16 49.856 11.992 48.752 10.744H45.248C44.096 12.056 42.816 13.272 41.408 14.392C40 15.512 38.616 16.416 37.256 17.104C36.808 17.344 36.472 17.24 36.248 16.792L36.056 16.408C35.832 15.976 35.944 15.632 36.392 15.376C37.928 14.56 39.336 13.624 40.616 12.568C41.896 11.512 43.024 10.392 44 9.208Z" fill="white"/>
<path d="M71.528 21.256C71.752 21.144 71.944 21.12 72.104 21.184C72.28 21.232 72.432 21.368 72.56 21.592C73.52 23.256 74.776 24.688 76.328 25.888C77.88 27.088 79.56 27.968 81.368 28.528C81.848 28.688 82.016 29 81.872 29.464L81.752 29.896C81.608 30.392 81.296 30.552 80.816 30.376C78.64 29.64 76.688 28.584 74.96 27.208C73.232 25.832 71.848 24.248 70.808 22.456C70.568 22.024 70.672 21.696 71.12 21.472L71.528 21.256ZM78.56 9.232C79.024 9.232 79.376 9.352 79.616 9.59201C79.856 9.83201 79.976 10.184 79.976 10.648V14.896H81.152C81.664 14.896 81.92 15.152 81.92 15.664V16.096C81.92 16.608 81.664 16.864 81.152 16.864H79.448C78.984 16.864 78.632 16.744 78.392 16.504C78.152 16.264 78.032 15.912 78.032 15.448V11.2H72.992V11.896C72.992 12.888 72.864 13.792 72.608 14.608C72.368 15.424 71.96 16.216 71.384 16.984C71.064 17.384 70.72 17.408 70.352 17.056L70.016 16.744C69.84 16.568 69.744 16.392 69.728 16.216C69.712 16.024 69.784 15.832 69.944 15.64C70.36 15.08 70.648 14.52 70.808 13.96C70.968 13.384 71.048 12.696 71.048 11.896V10.648C71.048 10.184 71.168 9.83201 71.408 9.59201C71.648 9.352 72 9.232 72.464 9.232H78.56ZM79.16 18.448C79.88 18.448 80.368 18.624 80.624 18.976C80.896 19.328 80.92 19.84 80.696 20.512C80.184 22.048 79.424 23.464 78.416 24.76C77.408 26.04 76.208 27.152 74.816 28.096C73.44 29.04 71.944 29.768 70.328 30.28C69.848 30.44 69.536 30.28 69.392 29.8L69.272 29.392C69.208 29.152 69.216 28.952 69.296 28.792C69.376 28.632 69.536 28.504 69.776 28.408C71.216 27.944 72.52 27.328 73.688 26.56C74.872 25.776 75.888 24.872 76.736 23.848C77.584 22.808 78.24 21.656 78.704 20.392H70.592C70.096 20.392 69.848 20.144 69.848 19.648V19.192C69.848 18.696 70.096 18.448 70.592 18.448H79.16ZM67.064 9.184C67.512 9.184 67.848 9.296 68.072 9.52C68.312 9.744 68.432 10.08 68.432 10.528V28.864C68.432 29.312 68.312 29.648 68.072 29.872C67.848 30.112 67.512 30.232 67.064 30.232H65.624C65.112 30.232 64.856 29.976 64.856 29.464V29.032C64.856 28.52 65.112 28.264 65.624 28.264H66.632V11.152H62.936V19.528C62.936 21.368 62.824 23.136 62.6 24.832C62.376 26.512 62 28.136 61.472 29.704C61.328 30.152 61.04 30.304 60.608 30.16L60.224 29.992C59.776 29.848 59.624 29.552 59.768 29.104C60.28 27.6 60.632 26.064 60.824 24.496C61.032 22.928 61.136 21.272 61.136 19.528V10.528C61.136 10.096 61.248 9.768 61.472 9.544C61.712 9.304 62.056 9.184 62.504 9.184H67.064ZM66.752 21.352C67.264 21.352 67.52 21.608 67.52 22.12V22.576C67.52 23.088 67.264 23.344 66.752 23.344H62.744C62.248 23.344 62 23.088 62 22.576V22.12C62 21.608 62.248 21.352 62.744 21.352H66.752ZM66.752 15.328C67.264 15.328 67.52 15.576 67.52 16.072V16.528C67.52 17.04 67.264 17.296 66.752 17.296H62.792C62.28 17.296 62.024 17.04 62.024 16.528V16.072C62.024 15.576 62.28 15.328 62.792 15.328H66.752Z" fill="white"/>
<path d="M92.48 18.208C92.704 18.208 92.816 18.32 92.816 18.544V18.76C92.816 18.984 92.704 19.096 92.48 19.096H87.8C87.576 19.096 87.464 18.984 87.464 18.76V18.544C87.464 18.32 87.576 18.208 87.8 18.208H92.48ZM92.48 15.448C92.704 15.448 92.816 15.56 92.816 15.784V16C92.816 16.224 92.704 16.336 92.48 16.336H87.8C87.576 16.336 87.464 16.224 87.464 16V15.784C87.464 15.56 87.576 15.448 87.8 15.448H92.48ZM104.336 12.496C104.576 12.496 104.752 12.56 104.864 12.688C104.992 12.8 105.056 12.976 105.056 13.216V19.216C105.056 19.488 104.928 19.624 104.672 19.624H104.408C104.136 19.624 104 19.488 104 19.216V13.432H86V19.216C86 19.488 85.864 19.624 85.592 19.624H85.328C85.072 19.624 84.944 19.488 84.944 19.216V13.216C84.944 12.976 85 12.8 85.112 12.688C85.24 12.56 85.424 12.496 85.664 12.496H104.336ZM95.12 9.856C95.392 9.856 95.528 9.984 95.528 10.24V19.216C95.528 19.488 95.392 19.624 95.12 19.624H94.88C94.608 19.624 94.472 19.488 94.472 19.216V10.24C94.472 9.984 94.608 9.856 94.88 9.856H95.12ZM102.2 18.208C102.424 18.208 102.536 18.32 102.536 18.544V18.76C102.536 18.984 102.424 19.096 102.2 19.096H97.496C97.288 19.096 97.184 18.984 97.184 18.76V18.544C97.184 18.32 97.288 18.208 97.496 18.208H102.2ZM102.2 15.448C102.424 15.448 102.536 15.56 102.536 15.784V16C102.536 16.224 102.424 16.336 102.2 16.336H97.496C97.288 16.336 97.184 16.224 97.184 16V15.784C97.184 15.56 97.288 15.448 97.496 15.448H102.2ZM103.928 9.35201C104.184 9.35201 104.312 9.48001 104.312 9.736V9.976C104.312 10.216 104.184 10.336 103.928 10.336H86.072C85.816 10.336 85.688 10.216 85.688 9.976V9.736C85.688 9.48001 85.816 9.35201 86.072 9.35201H103.928ZM85.928 21.976C85.928 21.72 85.992 21.528 86.12 21.4C86.264 21.272 86.456 21.208 86.696 21.208H103.304C103.544 21.208 103.728 21.272 103.856 21.4C104 21.528 104.072 21.72 104.072 21.976V29.344C104.072 29.584 104 29.768 103.856 29.896C103.728 30.04 103.544 30.112 103.304 30.112H86.696C86.456 30.112 86.264 30.04 86.12 29.896C85.992 29.768 85.928 29.584 85.928 29.344V21.976ZM102.992 22.216H87.008V29.104H102.992V22.216ZM103.16 25.168C103.4 25.168 103.52 25.288 103.52 25.528V25.768C103.52 26.008 103.4 26.128 103.16 26.128H86.84C86.6 26.128 86.48 26.008 86.48 25.768V25.528C86.48 25.288 86.6 25.168 86.84 25.168H103.16ZM95.12 21.712C95.392 21.712 95.528 21.848 95.528 22.12V29.2C95.528 29.472 95.392 29.608 95.12 29.608H94.88C94.608 29.608 94.472 29.472 94.472 29.2V22.12C94.472 21.848 94.608 21.712 94.88 21.712H95.12Z" fill="white"/>
<path d="M111.176 16.528C111.432 16.528 111.624 16.592 111.752 16.72C111.896 16.848 111.968 17.04 111.968 17.296V25.48C111.968 26.456 112.256 27.24 112.832 27.832C113.408 28.408 114.176 28.696 115.136 28.696H129.536C129.808 28.696 129.944 28.832 129.944 29.104V29.344C129.944 29.616 129.808 29.752 129.536 29.752H115.136C114.352 29.752 113.632 29.568 112.976 29.2C112.336 28.832 111.824 28.32 111.44 27.664C111.072 27.008 110.888 26.28 110.888 25.48V17.584H108.416C108.144 17.584 108.008 17.448 108.008 17.176V16.936C108.008 16.664 108.144 16.528 108.416 16.528H111.176ZM110 9.328C110.24 9.232 110.416 9.304 110.528 9.544L112.136 13.6C112.232 13.856 112.152 14.032 111.896 14.128L111.656 14.224C111.4 14.32 111.224 14.248 111.128 14.008L109.52 9.952C109.424 9.69601 109.504 9.52001 109.76 9.424L110 9.328ZM111.656 26.152C111.848 26.344 111.856 26.528 111.68 26.704L108.992 29.824C108.8 30.016 108.608 30.016 108.416 29.824L108.224 29.68C108.032 29.488 108.024 29.296 108.2 29.104L110.888 26.008C111.08 25.816 111.272 25.808 111.464 25.984L111.656 26.152ZM121.928 8.848C122.2 8.848 122.336 8.984 122.336 9.25601C122.32 11.88 122.08 14.208 121.616 16.24C121.168 18.256 120.424 20.088 119.384 21.736C118.344 23.384 116.936 24.864 115.16 26.176C114.952 26.352 114.76 26.328 114.584 26.104L114.44 25.888C114.28 25.696 114.304 25.504 114.512 25.312C116.208 24.032 117.544 22.608 118.52 21.04C119.512 19.472 120.216 17.744 120.632 15.856C121.048 13.952 121.256 11.76 121.256 9.28C121.272 8.992 121.416 8.848 121.688 8.848H121.928ZM129.176 13.624C129.448 13.624 129.584 13.76 129.584 14.032V14.296C129.584 14.568 129.448 14.704 129.176 14.704H114.44C114.168 14.704 114.032 14.568 114.032 14.296V14.032C114.032 13.76 114.168 13.624 114.44 13.624H129.176ZM122.24 13.864C122.512 13.816 122.672 13.928 122.72 14.2C123.088 16.616 123.776 18.728 124.784 20.536C125.792 22.328 127.232 23.92 129.104 25.312C129.312 25.504 129.336 25.696 129.176 25.888L129.032 26.104C128.856 26.328 128.664 26.352 128.456 26.176C126.44 24.656 124.888 22.92 123.8 20.968C122.728 19.016 122.016 16.808 121.664 14.344C121.616 14.072 121.728 13.912 122 13.864H122.24Z" fill="white"/>
<path fill-rule="evenodd" clip-rule="evenodd" d="M13 21C14.1046 21 15 20.1046 15 19C15 17.8954 14.1046 17 13 17C11.8954 17 11 17.8954 11 19C11 20.1046 11.8954 21 13 21ZM13.5303 18.4697L13 17.5L12.4697 18.4697L11.5 19L12.4697 19.5303L13 20.5L13.5303 19.5303L14.5 19L13.5303 18.4697Z" fill="#FFE699"/>
<path fill-rule="evenodd" clip-rule="evenodd" d="M2.52949 18H2.04484C2.55007 12.3935 7.26196 8 13 8C16.4201 8 19.4756 9.56083 21.4931 12.009L15.9784 19.362C15.8609 20.3388 15.274 21.1712 14.4499 21.627L15.0182 22.3089L22.1172 12.8436C23.1301 14.3408 23.784 16.1008 23.9552 18H23.4705C23.5016 18.3292 23.5174 18.6627 23.5174 19C23.5174 19.3373 23.5016 19.6708 23.4705 20H23.9552C23.4499 25.6065 18.738 30 13 30C8.08112 30 3.91633 26.7714 2.50917 22.3177L9.93167 16.2051L10.6778 17.1005C10.89 16.8414 11.1446 16.6185 11.4311 16.4424L10.0634 14.8011L2.23066 21.2517C2.14551 20.8423 2.08311 20.4246 2.04484 20H2.52949C2.49845 19.6708 2.48257 19.3373 2.48257 19C2.48257 18.6627 2.49845 18.3292 2.52949 18ZM13 6C5.8203 6 0 11.8203 0 19C0 26.1797 5.8203 32 13 32C20.1797 32 26 26.1797 26 19C26 11.8203 20.1797 6 13 6ZM13.0001 10.5C10.6912 10.5 8.5973 11.4206 7.06547 12.9147L6.46094 12.1087C8.1642 10.4919 10.4663 9.5 13.0001 9.5V10.5ZM13.0024 10.5C15.3113 10.5 17.4052 11.4206 18.937 12.9147L19.5415 12.1087C17.8383 10.4919 15.5362 9.5 13.0024 9.5V10.5ZM7.06547 25.0853C8.28575 26.2755 9.86271 27.1018 11.6209 27.3887L13 25L14.3793 27.389C16.1384 27.1025 17.7162 26.276 18.937 25.0853L19.5415 25.8913C17.8383 27.5081 15.5362 28.5 13.0024 28.5V28H13.0001V28.5C10.4663 28.5 8.1642 27.5081 6.46094 25.8913L7.06547 25.0853Z" fill="url(#paint0_linear_1_39)"/>
<defs>
<linearGradient id="paint0_linear_1_39" x1="13" y1="6" x2="13" y2="32" gradientUnits="userSpaceOnUse">
<stop offset="0.275" stop-color="#FFE699"/>
<stop offset="1" stop-color="#C18E34"/>
</linearGradient>
</defs>
</svg>
