<svg xmlns="http://www.w3.org/2000/svg" width="116" height="36" fill="none"><g fill="#fff" clip-path="url(#a)"><path fill-rule="evenodd" d="m15 9 14 23H1L15 9Zm.2671 4.2854L25.4412 30H12.0556l.4444-8 1.5 1 1.2671-9.7146Z" clip-rule="evenodd"/><path d="M25.5 12 23 15l1.5 3 2.5-1-.5-1 1-1.5-2-2.5ZM31.1906 20.4195l-3.9253-.8337-1.5164 2.6091 2.3672 2.9591 2.3672-.4365 1.1835-1.3389-.4762-2.9591ZM21.0805 10.876l-1.4418-.2916-.2915.8746.583.8745 1.1502-.2734.0001-1.1841ZM18.0116 8.12909l.5915.32745.5765-.49608-.4609-.8915-.7071 1.06013ZM23.013 10.6944l.678.3752.6606-.5685-.8518-.4325-.4868.6258Z"/></g><path fill="#fff" d="M40.8101 27.266c0-.684.108-1.326.324-1.926.228-.612.552-1.14.972-1.584.42-.456.93-.816 1.53-1.08.6-.264 1.284-.396 2.052-.396.504 0 .966.048 1.386.144.42.084.828.21 1.224.378l-.558 2.142c-.252-.096-.528-.18-.828-.252-.3-.072-.636-.108-1.008-.108-.792 0-1.386.246-1.782.738-.384.492-.576 1.14-.576 1.944 0 .852.18 1.512.54 1.98.372.468 1.014.702 1.926.702.324 0 .672-.03 1.044-.09s.714-.156 1.026-.288l.378 2.196c-.312.132-.702.246-1.17.342-.468.096-.984.144-1.548.144-.864 0-1.608-.126-2.232-.378-.624-.264-1.14-.618-1.548-1.062-.396-.444-.69-.966-.882-1.566-.18-.612-.27-1.272-.27-1.98ZM50.2601 32V18.464l2.682-.432v4.536c.18-.06.408-.114.684-.162.288-.06.564-.09.828-.09.768 0 1.404.108 1.908.324.516.204.924.498 1.224.882.312.384.528.84.648 1.368.132.528.198 1.116.198 1.764V32h-2.682v-5.022c0-.864-.114-1.476-.342-1.836-.216-.36-.624-.54-1.224-.54-.24 0-.468.024-.684.072-.204.036-.39.078-.558.126V32h-2.682ZM64.4777 30.128c.264 0 .516-.006.756-.018.24-.012.432-.03.576-.054v-2.034c-.108-.024-.27-.048-.486-.072-.216-.024-.414-.036-.594-.036-.252 0-.492.018-.72.054-.216.024-.408.078-.576.162-.168.084-.3.198-.396.342-.096.144-.144.324-.144.54 0 .42.138.714.414.882.288.156.678.234 1.17.234Zm-.216-7.848c.792 0 1.452.09 1.98.27.528.18.948.438 1.26.774.324.336.552.744.684 1.224s.198 1.014.198 1.602v5.58c-.384.084-.918.18-1.602.288-.684.12-1.512.18-2.484.18-.612 0-1.17-.054-1.674-.162-.492-.108-.918-.282-1.278-.522-.36-.252-.636-.576-.828-.972-.192-.396-.288-.882-.288-1.458 0-.552.108-1.02.324-1.404.228-.384.528-.69.9-.918.372-.228.798-.39 1.278-.486.48-.108.978-.162 1.494-.162.348 0 .654.018.918.054.276.024.498.06.666.108v-.252c0-.456-.138-.822-.414-1.098-.276-.276-.756-.414-1.44-.414-.456 0-.906.036-1.35.108-.444.06-.828.15-1.152.27l-.342-2.16c.156-.048.348-.096.576-.144.24-.06.498-.108.774-.144.276-.048.564-.084.864-.108.312-.036.624-.054.936-.054ZM79.6649 27.248c0 .744-.108 1.428-.324 2.052-.216.612-.528 1.14-.936 1.584-.408.432-.9.768-1.476 1.008-.564.24-1.2.36-1.908.36-.696 0-1.332-.12-1.908-.36-.564-.24-1.05-.576-1.458-1.008-.408-.444-.726-.972-.954-1.584-.228-.624-.342-1.308-.342-2.052s.114-1.422.342-2.034c.24-.612.564-1.134.972-1.566.42-.432.912-.768 1.476-1.008.576-.24 1.2-.36 1.872-.36.684 0 1.308.12 1.872.36.576.24 1.068.576 1.476 1.008.408.432.726.954.954 1.566.228.612.342 1.29.342 2.034Zm-2.736 0c0-.828-.168-1.476-.504-1.944-.324-.48-.792-.72-1.404-.72-.612 0-1.086.24-1.422.72-.336.468-.504 1.116-.504 1.944 0 .828.168 1.488.504 1.98.336.48.81.72 1.422.72.612 0 1.08-.24 1.404-.72.336-.492.504-1.152.504-1.98ZM89.4285 31.712c-.348.12-.792.234-1.332.342-.54.108-1.224.162-2.052.162-.684 0-1.308-.108-1.872-.324-.552-.228-1.032-.552-1.44-.972-.396-.42-.708-.93-.936-1.53-.216-.6-.324-1.278-.324-2.034 0-.708.09-1.356.27-1.944.192-.6.468-1.116.828-1.548.36-.432.798-.768 1.314-1.008.528-.24 1.128-.36 1.8-.36.612 0 1.14.09 1.584.27.456.168.786.33.99.486v-5.004l1.17-.216v13.68Zm-1.17-7.326c-.108-.084-.246-.174-.414-.27-.156-.096-.342-.186-.558-.27-.216-.084-.45-.15-.702-.198-.252-.06-.516-.09-.792-.09-.576 0-1.062.102-1.458.306-.384.204-.696.48-.936.828-.24.336-.414.738-.522 1.206-.108.456-.162.942-.162 1.458 0 1.224.306 2.166.918 2.826.612.648 1.422.972 2.43.972.576 0 1.038-.024 1.386-.072.36-.06.63-.12.81-.18v-6.516ZM93.6946 32h-1.17v-9.306h1.17V32Zm.27-12.114c0 .276-.084.498-.252.666-.168.156-.372.234-.612.234s-.444-.078-.612-.234c-.168-.168-.252-.39-.252-.666s.084-.492.252-.648c.168-.168.372-.252.612-.252s.444.084.612.252c.168.156.252.372.252.648ZM96.7961 23.018c.348-.096.816-.204 1.404-.324.588-.12 1.308-.18 2.1599-.18.708 0 1.296.102 1.764.306.48.204.858.498 1.134.882.288.372.492.822.612 1.35.12.528.18 1.11.18 1.746V32h-1.17v-4.824c0-.66-.048-1.218-.144-1.674-.084-.456-.234-.828-.45-1.116-.204-.288-.48-.492-.828-.612-.336-.132-.762-.198-1.278-.198-.5519 0-1.0319.03-1.4399.09-.396.06-.654.114-.774.162V32h-1.17v-8.982ZM113.11 30.92c-.072.06-.18.132-.324.216-.144.072-.324.15-.54.234-.204.084-.444.156-.72.216-.264.048-.564.072-.9.072-.54 0-1.062-.084-1.566-.252-.504-.168-.948-.432-1.332-.792-.372-.36-.672-.822-.9-1.386-.228-.576-.342-1.272-.342-2.088 0-.66.102-1.272.306-1.836.204-.564.492-1.05.864-1.458.384-.42.846-.744 1.386-.972.552-.24 1.17-.36 1.854-.36.864 0 1.554.06 2.07.18.528.108.96.216 1.296.324v8.496c0 1.392-.36 2.382-1.08 2.97-.72.6-1.806.9-3.258.9-.6 0-1.146-.048-1.638-.144-.48-.084-.894-.186-1.242-.306l.234-1.062c.288.132.678.246 1.17.342.504.096 1.008.144 1.512.144 1.104 0 1.902-.216 2.394-.648.504-.42.756-1.146.756-2.178v-.612Zm-.018-7.092c-.204-.06-.468-.114-.792-.162-.324-.06-.786-.09-1.386-.09-.504 0-.954.09-1.35.27-.384.168-.714.414-.99.738-.276.312-.486.69-.63 1.134-.144.432-.216.912-.216 1.44 0 .612.084 1.14.252 1.584.168.432.384.786.648 1.062.276.276.588.48.936.612.348.12.702.18 1.062.18.528 0 1.008-.078 1.44-.234.444-.156.786-.336 1.026-.54v-5.994Z"/><defs><clipPath id="a"><path fill="#fff" d="M0 0h32v32H0z"/></clipPath></defs></svg>