<svg width="10" height="14" viewBox="0 0 10 14" fill="none" xmlns="http://www.w3.org/2000/svg">
<path d="M3.88388 1.11612C3.39573 0.627961 2.60427 0.627961 2.11612 1.11612C1.62796 1.60427 1.62796 2.39573 2.11612 2.88388L3.88388 1.11612ZM8 7L8.88388 7.88388C9.37204 7.39573 9.37204 6.60427 8.88388 6.11612L8 7ZM2.11612 11.1161C1.62796 11.6043 1.62796 12.3957 2.11612 12.8839C2.60427 13.372 3.39573 13.372 3.88388 12.8839L2.11612 11.1161ZM2.11612 2.88388L7.11612 7.88388L8.88388 6.11612L3.88388 1.11612L2.11612 2.88388ZM7.11612 6.11612L2.11612 11.1161L3.88388 12.8839L8.88388 7.88388L7.11612 6.11612Z" fill="white"/>
</svg>
