<svg xmlns="http://www.w3.org/2000/svg" width="341" height="90" fill="none">
  <path fill="#E8E3D1" fill-rule="evenodd" d="M175.36 20.164c-1.139-.99-2.599-1.485-4.381-1.485s-3.242.495-4.381 1.485c-1.138.99-1.707 2.302-1.707 3.935 0 1.634.569 2.945 1.707 3.936 1.139.99 2.599 1.485 4.381 1.485s3.242-.495 4.381-1.485c1.138-.99 1.708-2.302 1.708-3.936 0-1.633-.57-2.945-1.708-3.935Zm.817 48.93V36.797a36.76 36.76 0 0 1-4.604.817 57.492 57.492 0 0 1-5.197.223c-1.485 0-3.02-.075-4.604-.223v1.559c1.931 0 3.242.545 3.935 1.634.743 1.039 1.114 2.697 1.114 4.974v23.315c0 2.079-.396 3.49-1.188 4.232-.742.743-2.029 1.114-3.861 1.114V76c.941-.05 2.351-.099 4.232-.148 1.881-.1 3.738-.149 5.569-.149 1.881 0 3.737.05 5.569.148 1.831.05 3.193.1 4.084.149v-1.56c-1.832 0-3.144-.37-3.936-1.113-.742-.742-1.113-2.153-1.113-4.232Zm66.483-31.407V25.436a18.89 18.89 0 0 1-4.381 1.41c-1.535.297-3.193.47-4.975.52v10.32h-6.534v1.486h6.534v25.022c0 2.624.173 4.727.52 6.311.396 1.584 1.138 2.946 2.227 4.084a8.221 8.221 0 0 0 2.97 1.782c1.188.446 2.624.668 4.307.668 2.821 0 4.999-.792 6.534-2.376 1.584-1.633 2.747-3.663 3.49-6.088l-1.337-.594c-.742 2.03-1.584 3.49-2.524 4.38-.941.842-1.98 1.263-3.119 1.263-1.188 0-2.104-.371-2.747-1.114-.644-.742-.965-2.005-.965-3.787V39.172h9.504v-1.485h-9.504Zm31.598-.223c-1.485-.594-3.267-.89-5.347-.89-2.128 0-4.133.395-6.014 1.187-1.831.743-3.316 1.856-4.455 3.341-1.138 1.436-1.708 3.268-1.708 5.495 0 2.03.446 3.787 1.337 5.272.941 1.485 2.129 2.821 3.564 4.01a147.22 147.22 0 0 0 4.752 3.638c2.228 1.633 4.084 3.167 5.569 4.603 1.485 1.435 2.227 3.242 2.227 5.42 0 1.436-.297 2.574-.891 3.416a4.882 4.882 0 0 1-2.153 1.856 6.201 6.201 0 0 1-2.673.594c-2.178 0-3.96-.57-5.346-1.708-1.386-1.188-2.45-2.796-3.193-4.826-.693-2.079-1.212-4.48-1.559-7.202h-1.634c0 3.762-.024 6.781-.074 9.058a147.117 147.117 0 0 1-.222 5.792h1.633c.198-1.04.47-1.782.817-2.228.396-.445.841-.544 1.336-.297a8.994 8.994 0 0 1 1.56.743c.544.297 1.138.618 1.782.965.841.396 1.806.718 2.895.965 1.089.248 2.302.371 3.639.371 2.475 0 4.727-.42 6.756-1.262 2.079-.89 3.738-2.128 4.975-3.712 1.287-1.634 1.931-3.589 1.931-5.866 0-1.98-.421-3.688-1.263-5.123-.841-1.485-1.955-2.822-3.341-4.01-1.386-1.237-2.97-2.45-4.752-3.638a92.94 92.94 0 0 0-4.455-3.118c-1.386-.99-2.525-2.03-3.416-3.119-.89-1.139-1.336-2.45-1.336-3.935 0-1.634.495-2.896 1.485-3.787 1.04-.891 2.326-1.337 3.861-1.337 2.178 0 3.935.595 5.272 1.782 1.336 1.139 2.351 2.575 3.044 4.307a22.455 22.455 0 0 1 1.411 5.346h1.633c0-3.267.025-5.866.075-7.796.049-1.98.123-3.688.222-5.123h-1.633c-.347 2.821-1.361 3.613-3.044 2.375-.693-.445-1.783-.965-3.267-1.559Zm-75.686-.594v7.422c.86-2.072 2.098-3.754 3.712-5.046 2.228-1.782 4.876-2.673 7.945-2.673 2.574 0 4.876.718 6.905 2.154 2.03 1.386 3.614 3.44 4.752 6.162 1.188 2.723 1.782 6.138 1.782 10.247 0 3.267-.371 6.261-1.113 8.984-.743 2.673-1.857 4.975-3.342 6.905a14.512 14.512 0 0 1-5.346 4.455c-2.128 1.04-4.554 1.56-7.276 1.56-2.079 0-3.935-.397-5.569-1.189-.976-.473-1.792-1.043-2.45-1.71v8.096c0 2.228.594 3.713 1.782 4.455 1.237.792 2.92 1.188 5.049 1.188v1.56c-1.188-.05-2.871-.124-5.049-.224-2.129-.049-4.406-.074-6.831-.074-1.683 0-3.366.025-5.049.075-1.683.099-2.97.173-3.861.222V87.88c1.683 0 2.871-.346 3.564-1.04.693-.693 1.039-1.98 1.039-3.86v-37.2c0-2.227-.346-3.86-1.039-4.9-.693-1.09-2.03-1.634-4.01-1.634v-1.559a49.35 49.35 0 0 0 4.604.223 58.41 58.41 0 0 0 5.272-.223 37.15 37.15 0 0 0 4.529-.817Zm0 35.332V47.078c.478-2.185 1.344-3.905 2.599-5.159 1.633-1.633 3.465-2.45 5.494-2.45 1.485 0 2.772.57 3.861 1.708 1.089 1.089 1.906 2.87 2.45 5.346.545 2.475.817 5.766.817 9.875 0 3.712-.297 6.98-.891 9.801-.544 2.822-1.51 5.024-2.896 6.608-1.386 1.535-3.267 2.302-5.643 2.302-1.435 0-2.673-.322-3.712-.965a7.06 7.06 0 0 1-2.079-1.942Zm-55.576-35.629c4.356 0 7.771 1.312 10.246 3.935 2.475 2.624 3.713 6.807 3.713 12.549h-21.586a25.636 25.636 0 0 0-.17 1.707v2.228c0 3.416.495 6.237 1.485 8.465.99 2.227 2.277 3.86 3.861 4.9 1.584 1.04 3.218 1.56 4.901 1.56 1.138 0 2.302-.174 3.49-.52 1.188-.347 2.351-.99 3.489-1.931 1.139-.94 2.178-2.277 3.119-4.01l1.411.594c-.545 1.733-1.461 3.466-2.748 5.198-1.237 1.683-2.846 3.069-4.826 4.158-1.98 1.089-4.306 1.633-6.979 1.633-3.366 0-6.336-.742-8.91-2.227-2.574-1.485-4.579-3.688-6.015-6.608-1.435-2.97-2.153-6.584-2.153-10.84 0-4.505.743-8.292 2.228-11.361 1.534-3.069 3.638-5.395 6.311-6.98 2.673-1.633 5.717-2.45 9.133-2.45Zm-7.827 15.073h13.173c.099-2.425-.05-4.653-.446-6.682-.396-2.08-1.039-3.738-1.93-4.975-.842-1.238-1.956-1.856-3.342-1.856-1.881 0-3.514 1.113-4.9 3.34-1.331 2.092-2.182 5.482-2.555 10.173Zm-23.445-14.404c-1.534-.446-3.217-.669-5.049-.669-3.415 0-6.509.817-9.281 2.45-2.723 1.634-4.851 3.985-6.386 7.054-1.534 3.02-2.301 6.708-2.301 11.064 0 4.405.742 8.093 2.227 11.063 1.535 2.97 3.589 5.197 6.163 6.682 2.574 1.436 5.445 2.154 8.613 2.154 2.772 0 5.123-.57 7.054-1.708 1.93-1.139 3.49-2.574 4.678-4.307 1.237-1.732 2.128-3.465 2.673-5.197l-1.411-.52c-.941 1.732-2.005 3.069-3.193 4.01-1.138.94-2.302 1.608-3.49 2.004-1.188.396-2.301.594-3.341.594-1.732 0-3.366-.47-4.9-1.41-1.535-.99-2.797-2.649-3.787-4.975-.94-2.327-1.411-5.495-1.411-9.504 0-2.871.223-5.396.668-7.574.495-2.227 1.164-4.084 2.005-5.569.891-1.534 1.931-2.672 3.119-3.415 1.188-.792 2.524-1.188 4.009-1.188 1.139 0 2.178.223 3.119.668.94.396 1.633.916 2.079 1.56-1.188.297-2.203.915-3.045 1.856-.841.94-1.262 2.128-1.262 3.564 0 1.485.47 2.673 1.411 3.564.99.89 2.252 1.336 3.787 1.336 1.485 0 2.722-.495 3.712-1.485.99-.99 1.485-2.302 1.485-3.935 0-1.337-.346-2.55-1.039-3.638-.693-1.139-1.634-2.08-2.822-2.822-1.138-.742-2.5-1.311-4.084-1.707Zm-42.833-.669c4.356 0 7.771 1.312 10.246 3.935 2.475 2.624 3.713 6.807 3.713 12.549H61.264a25.326 25.326 0 0 0-.17 1.707v2.228c0 3.416.495 6.237 1.486 8.465.99 2.227 2.276 3.86 3.86 4.9 1.585 1.04 3.218 1.56 4.901 1.56 1.139 0 2.302-.174 3.49-.52 1.188-.347 2.351-.99 3.49-1.931 1.138-.94 2.178-2.277 3.118-4.01l1.41.594c-.544 1.733-1.46 3.466-2.746 5.198-1.238 1.683-2.847 3.069-4.827 4.158-1.98 1.089-4.306 1.633-6.98 1.633-3.365 0-6.335-.742-8.91-2.227-2.573-1.485-4.578-3.688-6.014-6.608-1.435-2.97-2.153-6.584-2.153-10.84 0-4.505.743-8.292 2.228-11.361 1.534-3.069 3.638-5.395 6.311-6.98 2.673-1.633 5.717-2.45 9.133-2.45Zm-7.827 15.073h13.173c.099-2.425-.05-4.653-.446-6.682-.396-2.08-1.04-3.738-1.93-4.975-.842-1.238-1.956-1.856-3.342-1.856-1.88 0-3.514 1.113-4.9 3.34-1.33 2.092-2.182 5.482-2.555 10.173ZM5.425 23.579a343.93 343.93 0 0 1-4.752-.148v1.485c1.633.05 2.846.247 3.638.594.842.297 1.386.89 1.634 1.782.297.841.445 2.178.445 4.01v36.827c0 1.782-.148 3.119-.445 4.01-.248.89-.792 1.485-1.634 1.782-.792.297-2.005.495-3.638.594V76c1.237-.1 2.821-.149 4.752-.149a244.254 244.254 0 0 1 12.103 0c1.93 0 3.514.05 4.752.149v-1.485c-1.584-.1-2.797-.297-3.639-.594-.791-.297-1.336-.891-1.633-1.782-.297-.891-.445-2.228-.445-4.01V51.052h5.569c1.732 0 3.043.445 3.934 1.336.892.891 1.585 2.129 2.08 3.713.544 1.584 1.014 3.415 1.41 5.494l1.411 7.425c.594 3.119 1.708 5.247 3.341 6.386 1.634 1.089 3.639 1.633 6.014 1.633 2.129 0 3.886-.346 5.272-1.04 1.386-.742 2.698-1.88 3.935-3.415l-1.039-.89c-.495.643-.99 1.163-1.485 1.559-.495.346-1.089.52-1.782.52-.99.049-1.757-.347-2.302-1.189-.495-.89-.965-2.35-1.41-4.38l-1.708-7.648c-.644-3.07-1.956-5.346-3.935-6.831-1.931-1.535-4.95-2.5-9.059-2.896-.117-.02-.235-.038-.356-.057 1.928-.221 3.631-.573 5.108-1.057 2.772-.94 4.95-2.128 6.534-3.564 1.584-1.435 2.698-2.994 3.341-4.677.644-1.733.965-3.416.965-5.05 0-2.623-.717-4.9-2.153-6.83-1.435-1.93-3.613-3.416-6.534-4.455-2.87-1.09-6.534-1.634-10.989-1.634-.89 0-2.425.025-4.603.074-2.178.05-4.48.075-6.905.075-1.931 0-3.862-.025-5.792-.075Zm11.137 25.988h3.787c3.119 0 5.495-.545 7.128-1.634 1.683-1.138 2.797-2.623 3.341-4.455.595-1.88.891-3.96.891-6.237 0-3.91-.767-6.93-2.301-9.058-1.535-2.178-4.183-3.267-7.945-3.267-2.03 0-3.366.42-4.01 1.262-.593.842-.89 2.55-.89 5.123v18.266ZM8.904.038v4.956c.233-.523.555-.891.966-1.106.42-.215.872-.322 1.358-.322.382 0 .695.051.938.154.242.103.438.233.588.392.158.177.27.406.336.686.074.28.112.658.112 1.134v3.766c0 .392.07.658.21.798.15.14.396.21.742.21V11a29.33 29.33 0 0 0-.77-.028 18.9 18.9 0 0 0-2.016 0c-.327.01-.574.019-.742.028v-.294c.298 0 .508-.07.63-.21.121-.14.182-.406.182-.798V5.456c0-.252-.024-.476-.07-.672a.818.818 0 0 0-.28-.476c-.13-.121-.332-.182-.602-.182-.299 0-.57.084-.812.252-.234.159-.42.387-.56.686-.14.29-.21.62-.21.994v3.64c0 .392.06.658.182.798.13.14.34.21.63.21V11c-.159-.01-.397-.019-.714-.028-.308-.019-.63-.028-.966-.028-.336 0-.686.01-1.05.028-.355.01-.62.019-.798.028v-.294c.345 0 .588-.07.728-.21.15-.14.224-.406.224-.798v-7.98c0-.42-.07-.728-.21-.924C6.8.589 6.552.486 6.188.486V.192c.298.028.588.042.868.042.354 0 .686-.014.994-.042.308-.037.592-.089.854-.154Zm28.642 4.956V.038a7.001 7.001 0 0 1-.854.154c-.308.028-.639.042-.994.042-.28 0-.569-.014-.868-.042v.294c.364 0 .612.103.742.308.14.196.21.504.21.924v7.98c0 .392-.074.658-.224.798-.14.14-.382.21-.728.21V11c.178-.01.444-.019.798-.028.364-.019.714-.028 1.05-.028.336 0 .658.01.966.028.318.01.556.019.714.028v-.294c-.289 0-.499-.07-.63-.21-.121-.14-.182-.406-.182-.798v-3.64c0-.373.07-.705.21-.994.14-.299.327-.527.56-.686.243-.168.514-.252.812-.252.271 0 .472.06.602.182.14.112.234.27.28.476.047.196.07.42.07.672v4.242c0 .392-.06.658-.182.798-.121.14-.331.21-.63.21V11c.168-.01.416-.019.742-.028a17.392 17.392 0 0 1 2.016 0c.346.01.602.019.77.028v-.294c-.345 0-.592-.07-.742-.21-.14-.14-.21-.406-.21-.798V5.932c0-.476-.037-.854-.112-1.134a1.528 1.528 0 0 0-.336-.686 1.706 1.706 0 0 0-.588-.392c-.242-.103-.555-.154-.938-.154-.485 0-.938.107-1.358.322-.41.215-.732.583-.966 1.106ZM65.027.038v9.436c0 .42.07.733.21.938.14.196.387.294.742.294V11a9.006 9.006 0 0 0-.868-.042c-.345 0-.672.014-.98.042-.308.028-.597.08-.868.154V9.927a2.06 2.06 0 0 1-.546.821c-.336.299-.78.448-1.33.448-.56 0-1.06-.135-1.498-.406-.43-.28-.765-.7-1.008-1.26-.233-.57-.35-1.288-.35-2.156 0-.85.14-1.554.42-2.114.28-.57.658-.994 1.134-1.274a3.089 3.089 0 0 1 1.596-.42c.41 0 .78.08 1.106.238.186.09.345.215.476.375V1.718c0-.42-.07-.728-.21-.924-.13-.205-.378-.308-.742-.308V.192c.299.028.588.042.868.042.355 0 .686-.014.994-.042.308-.037.593-.089.854-.154Zm-2.198 10.206c.216-.223.36-.521.434-.893V4.588a1.287 1.287 0 0 0-.448-.448 1.473 1.473 0 0 0-.756-.196c-.504 0-.91.285-1.218.854-.299.56-.448 1.423-.448 2.59 0 .784.06 1.419.182 1.904.121.476.294.821.518 1.036.233.215.509.322.826.322.336 0 .64-.135.91-.406Zm6.34-9.772c-.216-.187-.49-.28-.827-.28-.336 0-.611.093-.826.28a.935.935 0 0 0-.322.742c0 .308.107.555.322.742.215.187.49.28.826.28.336 0 .611-.093.826-.28a.935.935 0 0 0 .322-.742.935.935 0 0 0-.322-.742Zm.153 9.226v-6.09c-.261.065-.55.117-.868.154-.308.028-.635.042-.98.042-.28 0-.57-.014-.868-.042v.294c.364 0 .611.103.742.308.14.196.21.509.21.938v4.396c0 .392-.075.658-.224.798-.14.14-.383.21-.728.21V11c.177-.01.443-.019.798-.028a20.049 20.049 0 0 1 2.1 0c.345.01.602.019.77.028v-.294c-.345 0-.593-.07-.742-.21-.14-.14-.21-.406-.21-.798Zm12.659 3.934c-.55 0-1.05-.051-1.498-.154-.448-.103-.803-.257-1.064-.462-.261-.196-.392-.448-.392-.756 0-.299.13-.565.392-.798.261-.233.644-.41 1.148-.532l.098.224a1.034 1.034 0 0 0-.406.42c-.093.177-.14.364-.14.56 0 .401.182.71.546.924.373.224.868.336 1.484.336.42 0 .807-.056 1.162-.168.355-.112.64-.285.854-.518.215-.233.322-.523.322-.868a.947.947 0 0 0-.322-.728c-.205-.196-.62-.294-1.246-.294h-.924c-.345 0-.663-.037-.952-.112a1.459 1.459 0 0 1-.672-.364c-.168-.168-.252-.401-.252-.7 0-.364.15-.69.448-.98.23-.23.562-.456.993-.675a3.683 3.683 0 0 1-.825-.193 2.076 2.076 0 0 1-.952-.728c-.233-.336-.35-.76-.35-1.274 0-.513.117-.933.35-1.26.233-.327.55-.57.952-.728a3.78 3.78 0 0 1 1.372-.238c.513 0 .97.08 1.372.238.274.108.508.256.704.442.124-.17.276-.322.458-.456.317-.243.653-.364 1.008-.364.27 0 .48.075.63.224.159.15.238.36.238.63 0 .28-.075.485-.224.616a.73.73 0 0 1-.49.196.686.686 0 0 1-.434-.154c-.13-.112-.205-.28-.224-.504-.016-.2.037-.443.16-.727a2.156 2.156 0 0 0-.608.377 2.075 2.075 0 0 0-.313.385l.047.063c.233.327.35.747.35 1.26s-.117.938-.35 1.274c-.233.327-.55.57-.952.728-.401.15-.859.224-1.372.224-.054 0-.108 0-.161-.003a4.326 4.326 0 0 0-.455.297.65.65 0 0 0-.266.532c0 .299.205.448.616.448h1.582c.485 0 .915.06 1.288.182.383.121.686.313.91.574.224.261.336.607.336 1.036 0 .448-.145.863-.434 1.246-.29.392-.728.705-1.316.938-.579.243-1.32.364-2.226.364Zm.126-5.866c.28 0 .5-.14.658-.42.168-.29.252-.807.252-1.554s-.084-1.26-.252-1.54c-.159-.29-.378-.434-.658-.434s-.504.145-.672.434c-.159.28-.238.793-.238 1.54s.08 1.265.238 1.554c.168.28.392.42.672.42Zm-6.168-4.2c.392 0 .704.051.938.154.242.103.438.233.588.392.168.177.284.406.35.686.074.28.112.658.112 1.134v3.766c0 .392.07.658.21.798.149.14.396.21.742.21V11c-.168-.01-.43-.019-.784-.028a18.75 18.75 0 0 0-2.016 0c-.327.01-.57.019-.728.028v-.294c.298 0 .508-.07.63-.21.121-.14.182-.406.182-.798V5.456c0-.252-.024-.476-.07-.672a.818.818 0 0 0-.28-.476c-.14-.121-.34-.182-.602-.182-.308 0-.584.084-.826.252a1.76 1.76 0 0 0-.56.7c-.13.29-.196.616-.196.98v3.64c0 .392.06.658.182.798.121.14.331.21.63.21V11c-.159-.01-.397-.019-.714-.028-.318-.019-.64-.028-.966-.028-.346 0-.696.01-1.05.028-.355.01-.621.019-.798.028v-.294c.345 0 .588-.07.728-.21.15-.14.224-.406.224-.798v-4.41c0-.42-.07-.728-.21-.924-.13-.205-.378-.308-.742-.308v-.294c.298.028.588.042.868.042.345 0 .672-.014.98-.042.317-.037.606-.089.868-.154v1.4c.233-.532.555-.905.966-1.12.41-.215.858-.322 1.344-.322Zm-20.174.392c-.495-.261-1.064-.392-1.708-.392-.644 0-1.218.13-1.722.392-.504.252-.901.658-1.19 1.218-.29.56-.434 1.297-.434 2.212 0 .915.144 1.652.434 2.212.289.56.686.966 1.19 1.218.504.252 1.078.378 1.722.378.644 0 1.213-.126 1.708-.378.504-.252.9-.658 1.19-1.218.298-.56.448-1.297.448-2.212 0-.915-.15-1.652-.448-2.212-.29-.56-.686-.966-1.19-1.218Zm-2.786.728c.28-.56.639-.84 1.078-.84.429 0 .784.28 1.064.84.28.55.42 1.451.42 2.702 0 1.25-.14 2.151-.42 2.702-.28.55-.635.826-1.064.826-.439 0-.798-.275-1.078-.826-.271-.55-.406-1.451-.406-2.702 0-1.25.135-2.151.406-2.702Zm-7.683 6.412c-.401 0-.742-.075-1.022-.224a1.573 1.573 0 0 1-.63-.63 1.92 1.92 0 0 1-.21-.896c0-.401.094-.728.28-.98a1.98 1.98 0 0 1 .714-.616c.299-.159.611-.29.938-.392.327-.112.635-.215.924-.308.29-.103.528-.22.714-.35a.604.604 0 0 0 .28-.518V5.162c0-.299-.047-.541-.14-.728A.851.851 0 0 0 46.752 4c-.168-.103-.383-.154-.644-.154a2.44 2.44 0 0 0-.616.084 1.042 1.042 0 0 0-.532.322c.243.065.43.187.56.364.14.177.21.392.21.644 0 .29-.098.518-.294.686-.187.159-.425.238-.714.238-.308 0-.541-.098-.7-.294a1.058 1.058 0 0 1-.238-.686c0-.261.066-.476.196-.644.13-.177.313-.336.546-.476.233-.159.532-.285.896-.378.364-.093.76-.14 1.19-.14.41 0 .775.047 1.092.14.318.084.588.238.812.462.224.215.369.48.434.798.066.317.098.705.098 1.162v3.836c0 .233.028.401.084.504.056.093.145.14.266.14a.54.54 0 0 0 .266-.07c.084-.047.178-.112.28-.196l.154.238c-.205.159-.42.285-.644.378-.224.093-.495.14-.812.14-.327 0-.588-.047-.784-.14a.93.93 0 0 1-.42-.406 1.605 1.605 0 0 1-.14-.63c-.224.373-.5.663-.826.868-.327.205-.718.308-1.176.308Zm.84-.784c.224 0 .43-.06.616-.182.196-.121.373-.303.532-.546V6.758a1.33 1.33 0 0 1-.406.378c-.168.112-.35.224-.546.336a3.778 3.778 0 0 0-.56.392c-.168.14-.313.317-.434.532-.112.205-.168.471-.168.798 0 .364.089.644.266.84.178.187.41.28.7.28ZM30.194.892c.616 0 1.12.093 1.512.28.401.177.756.387 1.064.63.186.14.326.159.42.056.102-.112.172-.369.21-.77h.322a39.2 39.2 0 0 0-.042 1.302c-.01.513-.014 1.19-.014 2.03h-.322c-.056-.42-.117-.77-.182-1.05a2.56 2.56 0 0 0-.28-.742 2.273 2.273 0 0 0-.476-.588 2.255 2.255 0 0 0-.91-.616c-.346-.14-.71-.21-1.092-.21-.486 0-.91.13-1.274.392-.355.252-.654.602-.896 1.05-.234.439-.411.952-.532 1.54a10.019 10.019 0 0 0-.168 1.876c0 .681.06 1.316.182 1.904.13.579.317 1.087.56 1.526.252.43.56.765.924 1.008.373.243.802.364 1.288.364.345 0 .7-.065 1.064-.196a2.09 2.09 0 0 0 .896-.602c.308-.28.518-.611.63-.994.112-.392.2-.91.266-1.554h.322c0 .877.004 1.587.014 2.128.009.532.023.98.042 1.344H33.4c-.038-.401-.103-.653-.196-.756-.084-.103-.229-.089-.434.042a7.617 7.617 0 0 1-1.106.644c-.383.177-.878.266-1.484.266-.952 0-1.788-.2-2.506-.602a4.188 4.188 0 0 1-1.68-1.736c-.392-.756-.588-1.666-.588-2.73 0-1.045.205-1.96.616-2.744a4.597 4.597 0 0 1 1.694-1.834c.718-.439 1.544-.658 2.478-.658ZM20.168 4.308c-.467-.495-1.111-.742-1.932-.742-.644 0-1.218.154-1.722.462-.504.299-.901.737-1.19 1.316-.28.579-.42 1.293-.42 2.142 0 .803.135 1.484.406 2.044.27.55.648.966 1.134 1.246.485.28 1.045.42 1.68.42.504 0 .942-.103 1.316-.308a2.76 2.76 0 0 0 .91-.784c.242-.327.415-.653.518-.98l-.266-.112c-.178.327-.374.579-.588.756a1.854 1.854 0 0 1-.658.364 2.34 2.34 0 0 1-.658.098c-.318 0-.626-.098-.924-.294-.299-.196-.542-.504-.728-.924-.187-.42-.28-.952-.28-1.596v-.42c.007-.114.018-.22.032-.322h4.07c0-1.083-.234-1.871-.7-2.366Zm-.924 2.1H16.76c.07-.885.23-1.524.482-1.918.261-.42.569-.63.924-.63.261 0 .471.117.63.35.168.233.289.546.364.938.074.383.102.803.084 1.26ZM4.01 3.776v-2.31a3.56 3.56 0 0 1-.826.266c-.29.056-.602.089-.938.098v1.946H1.014v.28h1.232v4.718c0 .495.033.891.098 1.19.075.299.215.555.42.77.159.15.345.261.56.336.224.084.495.126.812.126.532 0 .943-.15 1.232-.448.299-.308.518-.69.658-1.148l-.252-.112c-.14.383-.299.658-.476.826a.862.862 0 0 1-.588.238c-.224 0-.397-.07-.518-.21-.121-.14-.182-.378-.182-.714V4.056h1.792v-.28H4.01ZM327.249 35.397c.298.03.627.045.985.045h7.655c.687-1.18 1.06-1.806 1.12-1.88a.34.34 0 0 1 .246-.112c.179 0 .716.38 1.612 1.141.895.746 1.343 1.216 1.343 1.41 0 .12-.15.18-.448.18h-5.775c-.448.492-1.179 1.47-2.194 2.932h3.022c.373-.672.597-1.067.671-1.187.075-.119.15-.179.224-.179.15 0 .552.217 1.209.65.657.432 1.134.76 1.433.985.313.223.47.417.47.582 0 .149-.239.335-.717.56v5.595c0 .523.008.948.023 1.276l.045.828c0 .15-.03.262-.09.336-.045.075-.186.164-.425.269a3.509 3.509 0 0 1-.761.246 5.595 5.595 0 0 1-.873.067c-.299 0-.493-.037-.582-.112-.075-.09-.112-.283-.112-.582v-8.595h-5.305a.552.552 0 0 1-.314.29v8.417c0 .239-.037.41-.112.515-.074.09-.313.194-.716.313a4.152 4.152 0 0 1-1.074.157c-.329 0-.523-.037-.582-.112a.45.45 0 0 1-.09-.29c0-.135.015-.5.045-1.098.03-.611.045-1.32.045-2.126v-5.44c0-.91-.03-1.686-.09-2.328.866.194 1.768.515 2.709.963h.761c.179-1.134.268-2.112.268-2.932h-2.373c-.134 0-.276.022-.425.067.224.224.336.403.336.537s-.157.201-.47.201h-2.91c-.015.21-.157.329-.425.358v14.237c0 .582-.12 1.022-.359 1.32-.238.3-.641.523-1.208.672-.553.15-.993.224-1.321.224-.328 0-.515-.134-.56-.403-.059-.492-.216-.865-.47-1.119-.239-.254-.589-.425-1.052-.515-.448-.09-.671-.157-.671-.201 0-.045.298-.082.895-.112a13.155 13.155 0 0 0 1.388-.157c.313-.075.507-.194.582-.358.089-.164.134-.463.134-.895v-13.05h-1.813c-.298 0-.567.081-.806.246l-.582-1.052a9.01 9.01 0 0 0 1.119.067h4.724c.074-.15.246-.448.514-.896.269-.462.441-.738.515-.828.09-.09.179-.134.269-.134.164 0 .612.335 1.343 1.007Zm5.82 14.17c-.433 1.134-1.075 2.051-1.925 2.753-.836.701-2.007 1.224-3.515 1.567-1.492.358-2.566.537-3.223.537-.239 0-.358-.037-.358-.112 0-.075.164-.164.492-.269 1.791-.537 3.261-1.32 4.41-2.35 1.164-1.03 1.851-2.224 2.06-3.581.223-1.358.335-2.948.335-4.768 0-.747-.022-1.5-.067-2.261.552 0 1.157.044 1.813.134.672.075 1.067.15 1.187.224.134.075.201.164.201.268 0 .105-.06.202-.179.291a.724.724 0 0 0-.269.291c-.044.12-.067.366-.067.74-.044 2.685-.306 4.752-.783 6.2 4.342.343 6.514 1.425 6.514 3.245 0 .478-.149.903-.448 1.276-.298.388-.686.582-1.164.582-.463 0-.858-.365-1.186-1.096-.448-1-.993-1.769-1.634-2.306a8.138 8.138 0 0 0-2.194-1.366Zm2.731 8.696h-5.014c-.821-.448-1.814-.85-2.978-1.21.03 1.18.045 2.754.045 4.724-.94-1.03-1.507-1.544-1.701-1.544-.09 0-.194.082-.313.246-.12.149-.403.56-.851 1.23v-3.827c.373-.15.56-.29.56-.425s-.097-.246-.291-.336c-.179-.09-.56-.194-1.142-.313a11.251 11.251 0 0 0-1.813-.269c.06.701.089 1.507.089 2.418v2.753h-2.35c-.403 0-.776-.03-1.119-.09l.38.963a3.2 3.2 0 0 1 .963-.134h2.126v3.85c-1.179.238-2.313.41-3.402.515.209.671.455 1.335.739 1.992.283.642.447.992.492 1.052a.215.215 0 0 0 .157.067c.059 0 .276-.142.649-.425.373-.299.828-.62 1.365-.963v4.679c0 .447-.119.76-.358.94-.239.164-.776.246-1.611.246-.209 0-.433-.008-.672-.022-.239-.015-.358.014-.358.09 0 .059.224.163.671.313.448.134.776.298.985.492.224.209.358.567.403 1.074.03.433.246.65.649.65.418 0 .896-.105 1.433-.314.537-.209.91-.507 1.119-.895.224-.373.336-.955.336-1.746v-7.029a149.16 149.16 0 0 1 2.843-1.5c-.075 2.701-.396 4.962-.963 6.783a12.94 12.94 0 0 1-2.731 4.835c-.119.134-.179.231-.179.29 0 .06.015.09.045.09.224 0 1.015-.73 2.373-2.193 1.358-1.463 2.373-3.268 3.044-5.417.03.223.045.634.045 1.23v4.523c0 .76-.015 1.313-.045 1.656-.015.15.03.224.134.224.478 0 .993-.082 1.545-.246.567-.15.851-.336.851-.56v-.94h3.984v1.164c0 .15.022.239.067.268.06.045.306.068.739.068s.88-.097 1.343-.291c.463-.194.694-.366.694-.515l-.045-.515a8.843 8.843 0 0 1-.022-.672v-3.76c.433-.135.649-.299.649-.493s-.179-.403-.537-.626l-1.231-.851c-.463-.328-.754-.493-.873-.493a.392.392 0 0 0-.291.112c-.06.06-.291.41-.694 1.052h-.582v-2.954h4.387c.478 0 .716-.112.716-.336 0-.239-.388-.65-1.164-1.231-.761-.597-1.201-.896-1.32-.896a.216.216 0 0 0-.157.067c-.03.045-.149.254-.358.627l-.605 1.03h-1.499v-2.239c.358-.149.537-.283.537-.402 0-.12-.075-.21-.224-.269-.134-.075-.507-.172-1.119-.291a10.542 10.542 0 0 0-1.791-.246c.045.806.067 1.47.067 1.992v1.455h-2.507c.06-.522.149-1.746.269-3.671h5.641v.38c0 .24.052.366.156.381h.784c.418 0 .746-.045.985-.134.253-.105.455-.187.604-.247.164-.074.246-.194.246-.358l-.022-1.186V59.56c.507-.15.761-.313.761-.492 0-.195-.157-.403-.47-.627a25.74 25.74 0 0 0-1.276-.896c-.522-.358-.873-.537-1.052-.537-.179 0-.493.418-.94 1.254Zm.224.738v3.134h-5.597c.03-.865.045-1.53.045-1.992 0-.478.067-.858.202-1.142h5.35Zm-11.036 3.448h2.865l-.022 2.596-2.843.694v-3.29Zm5.037 4.835h2.596v2.954h-.559a14.68 14.68 0 0 0-2.463-.94c.164-.567.306-1.238.426-2.014Zm5.909 3.693v4.074h-3.984v-3.984c.044-.015.104-.045.179-.09h3.805Zm-22.317-8.931h-3.671c.432-.821.761-1.56.984-2.216.224-.672.388-1.112.493-1.321a.919.919 0 0 1 .448-.47c.194-.105.291-.224.291-.358 0-.09-.075-.172-.224-.246-.149-.075-.62-.202-1.41-.381-.776-.18-1.538-.32-2.284-.425-.283 2.596-.679 4.76-1.186 6.491a17.976 17.976 0 0 1-2.104 4.746V57.86c.373-.135.559-.284.559-.448 0-.179-.283-.32-.85-.425-.567-.12-1.328-.217-2.283-.291.029.582.044 1.246.044 1.992v10.275c-.835.298-1.485.522-1.947.671v-8.528c.448-.18.671-.336.671-.47 0-.15-.209-.292-.626-.426-.418-.134-1.261-.268-2.53-.403.045.642.067 1.343.067 2.104v7.544c0 .209-.044.366-.134.47-.09.105-.291.231-.604.38-.09.06-.135.127-.135.202 0 .075.142.47.426 1.186.283.702.477 1.172.582 1.41.119.225.209.337.268.337.135 0 .381-.202.739-.605.373-.418 1.447-1.507 3.223-3.268v7.253c0 .223.06.335.179.335.254 0 .545-.03.873-.09.329-.059.627-.148.896-.268.283-.12.455-.209.515-.268a.3.3 0 0 0 .112-.247l-.023-.805c-.015-.284-.022-.791-.022-1.523v-5.529a20.337 20.337 0 0 0 2.955-3.111c.164 2.552.776 4.753 1.835 6.603a13.32 13.32 0 0 1-2.373 3.09c-.94.91-1.94 1.633-2.999 2.17-.254.12-.381.225-.381.314 0 .09.06.134.179.134.269 0 1.127-.38 2.575-1.141 1.447-.761 2.783-1.783 4.006-3.067.388.507.814 1.007 1.276 1.5.478.492.993.977 1.545 1.455.552.492.873.761.962.806.09.06.179.09.269.09.09 0 .194-.068.313-.202.911-1.194 1.814-1.91 2.709-2.15.194-.059.291-.111.291-.156 0-.06-.097-.127-.291-.201-2.209-.836-4.022-1.873-5.44-3.112 1-1.611 1.858-3.693 2.575-6.245a4.91 4.91 0 0 1 .291-.828c.089-.18.201-.276.335-.291.284-.03.426-.135.426-.314 0-.134-.097-.246-.291-.335-.179-.09-.881-.306-2.104-.65h3.29c.463 0 .694-.104.694-.313 0-.224-.395-.686-1.186-1.388-.791-.716-1.269-1.074-1.433-1.074-.06 0-.119.03-.179.09-.06.059-.224.298-.492.716a20.88 20.88 0 0 0-.694 1.23Zm-4.074.738h2.753c-.194 2.552-.709 4.888-1.545 7.007-1.164-1.448-1.977-3.134-2.44-5.06.508-.7.918-1.35 1.232-1.947Zm2.708-18.702v-5.91c1.537.777 2.448 2.142 2.731 4.097.119.895.507 1.343 1.164 1.343a1.58 1.58 0 0 0 1.164-.47c.313-.328.47-.746.47-1.253 0-.97-.47-1.829-1.41-2.575-.925-.76-2.298-1.268-4.119-1.522v-2.82c.403-.164.605-.336.605-.515 0-.18-.254-.328-.762-.448-.492-.12-1.328-.224-2.507-.313.03.582.045 1.246.045 1.992v3.425c-.418-.269-1.403-.672-2.955-1.209-.209 3-1.044 5.716-2.507 8.148-.149.254-.224.41-.224.47 0 .03.008.045.023.045.149 0 .709-.485 1.679-1.455.985-.97 2.029-2.492 3.134-4.567.283-.537.567-.82.85-.85v4.387c0 .746-.007 1.418-.022 2.015l-.045.873c0 .313.112.47.336.47.641 0 1.156-.067 1.544-.201.388-.135.627-.24.717-.314a.475.475 0 0 0 .156-.38l-.044-1.008a38.688 38.688 0 0 1-.023-1.455Zm-13.99-4.544h2.014v3.694c-1.492.492-2.686.835-3.581 1.03.85 1.79 1.365 2.685 1.544 2.685.075 0 .165-.052.269-.156a21.019 21.019 0 0 1 1.768-1.41v5.417c0 .313-.059.537-.179.671-.104.12-.343.202-.716.246-.373.045-1.015.068-1.925.068-.239 0-.358.03-.358.09 0 .059.112.111.336.156.641.134 1.096.336 1.365.604.284.269.455.664.515 1.187.03.343.201.514.515.514.209 0 .589-.074 1.141-.223.567-.15 1.008-.373 1.321-.672.313-.298.47-.836.47-1.612v-8.17l2.932-1.836c.194-.119.291-.238.291-.358 0-.134-.067-.201-.201-.201a.417.417 0 0 0-.134.022l-2.888 1.052v-2.798h3.268c.239 0 .358-.06.358-.179 0-.12-.388-.507-1.164-1.164-.776-.671-1.261-1.007-1.455-1.007-.194 0-.462.537-.805 1.611h-.202v-3.782c.418-.12.627-.277.627-.47 0-.21-.172-.359-.515-.448-.328-.105-1.224-.202-2.686-.291.06.701.089 1.507.089 2.417V38.8h-2.238c-.403 0-.776-.03-1.119-.09l.38.962a3.2 3.2 0 0 1 .963-.134Zm17.639 5.126a22.15 22.15 0 0 0-2.037-1.141c-.716 2.492-2.015 4.596-3.895 6.312-1.865 1.701-4.432 3.067-7.7 4.096-.239.075-.359.142-.359.202 0 .075.09.112.269.112.701 0 2.149-.313 4.343-.94 2.208-.612 4.021-1.448 5.439-2.507 1.418-1.06 2.634-2.44 3.649-4.142.194-.328.351-.537.47-.626a.814.814 0 0 1 .515-.157c.298 0 .447-.09.447-.269 0-.074-.044-.156-.134-.246-.074-.09-.41-.32-1.007-.694Z" clip-rule="evenodd"/>
</svg>
